<?xml version="1.0" encoding="UTF-8" standalone="no"?>
<svg
   xmlns:dc="http://purl.org/dc/elements/1.1/"
   xmlns:cc="http://creativecommons.org/ns#"
   xmlns:rdf="http://www.w3.org/1999/02/22-rdf-syntax-ns#"
   xmlns:svg="http://www.w3.org/2000/svg"
   xmlns="http://www.w3.org/2000/svg"
   id="svg8"
   version="1.1"
   viewBox="0 0 234.58715 179.80681"
   height="179.80681mm"
   width="234.58716mm">
  <defs
     id="defs2">
    <filter
       id="filter628"
       style="color-interpolation-filters:sRGB">
      <feFlood
         id="feFlood618"
         result="flood"
         flood-color="rgb(0,0,0)"
         flood-opacity="0.498039" />
      <feComposite
         id="feComposite620"
         result="composite1"
         operator="in"
         in2="SourceGraphic"
         in="flood" />
      <feGaussianBlur
         id="feGaussianBlur622"
         result="blur"
         stdDeviation="3"
         in="composite1" />
      <feOffset
         id="feOffset624"
         result="offset"
         dy="6"
         dx="6" />
      <feComposite
         id="feComposite626"
         result="composite2"
         operator="over"
         in2="offset"
         in="SourceGraphic" />
    </filter>
    <filter
       id="filter916"
       style="color-interpolation-filters:sRGB">
      <feFlood
         id="feFlood906"
         result="flood"
         flood-color="rgb(0,0,0)"
         flood-opacity="0.498039" />
      <feComposite
         id="feComposite908"
         result="composite1"
         operator="in"
         in2="SourceGraphic"
         in="flood" />
      <feGaussianBlur
         id="feGaussianBlur910"
         result="blur"
         stdDeviation="1"
         in="composite1" />
      <feOffset
         id="feOffset912"
         result="offset"
         dy="1.5"
         dx="1.5" />
      <feComposite
         id="feComposite914"
         result="composite2"
         operator="over"
         in2="offset"
         in="SourceGraphic" />
    </filter>
  </defs>
  <metadata
     id="metadata5">
    <rdf:RDF>
      <cc:Work
         rdf:about="">
        <dc:format>image/svg+xml</dc:format>
        <dc:type
           rdf:resource="http://purl.org/dc/dcmitype/StillImage" />
        <dc:title></dc:title>
      </cc:Work>
    </rdf:RDF>
  </metadata>
  <g
     transform="translate(192.63686,-39.892685)"
     id="layer1">
    <g
       transform="translate(1.5119048,-0.75595238)"
       id="g924">
      <g
         id="g180"
         transform="translate(3.4076867,-1.236122)"
         style="filter:url(#filter628)">
        <path
           style="fill:#6cbe8d;stroke-width:0.09958375"
           d="m -135.37929,206.68865 c -15.09736,-0.3555 -27.16675,-1.2097 -37.14474,-2.62889 -4.37198,-0.62184 -4.83589,-0.76221 -5.25305,-1.58945 -0.36834,-0.73046 -0.3087,-2.68001 0.27736,-9.06592 1.34155,-14.6181 4.45343,-33.16818 7.87676,-46.95374 3.57082,-14.37952 8.94577,-28.93791 14.72817,-39.89217 7.20106,-13.641807 15.55513,-23.889934 25.6399,-31.453076 6.84027,-5.129905 15.14317,-9.165142 23.55156,-11.446134 8.733284,-2.369129 16.030913,-3.665823 23.850307,-4.237889 8.050759,-0.588994 14.851772,-0.727436 41.924761,-0.853426 11.33761,-0.05276 22.876878,-0.141161 25.642817,-0.196442 8.7369704,-0.174622 14.45622474,-0.39546 15.3461749,-0.592565 0.1973551,-0.04371 0.5934893,-0.264964 0.8803005,-0.491676 0.6414588,-0.507046 1.0513554,-0.553846 1.2117251,-0.13835 0.1547631,0.400986 -0.1662152,1.592062 -0.8520485,3.161785 -1.0505987,2.404556 -1.76819923,4.730355 -3.02646985,9.808999 -1.03375905,4.17251 -1.66771915,7.119497 -3.21334865,14.937563 -2.0395948,10.316604 -3.1700597,15.890851 -3.3373305,16.456211 -0.032912,0.11125 0.00229,0.17428 0.097293,0.17428 0.081878,0 1.6197298,-0.54222 3.4174556,-1.20493 4.02852137,-1.485059 6.953356,-2.477132 9.9407093,-3.371774 7.0501221,-2.111349 11.3027561,-2.954425 11.3027561,-2.240749 0,0.07266 -0.63858,0.620913 -1.419068,1.218345 -8.1095338,6.207528 -22.9668624,19.334348 -26.681725,23.573968 -0.850156,0.97025 -0.896452,1.07754 -1.0742,2.4896 -0.536746,4.26393 -4.767412,17.25732 -9.202933,28.26438 -1.574728,3.9078 -2.499691,6.00163 -3.900964,8.83057 -12.318371,24.86879 -31.624983,38.0379 -65.171981,44.45402 -9.006621,1.72259 -15.459301,2.40976 -26.788031,2.85276 -2.51064,0.0982 -16.02263,0.19591 -18.62216,0.1347 z m 37.44349,-24.77499 c 8.656188,-0.61947 15.805128,-1.96252 22.954056,-4.31232 8.728894,-2.86912 15.953825,-6.77584 22.389167,-12.10644 1.538519,-1.2744 5.122887,-4.85155 6.360125,-6.34732 1.869625,-2.26029 3.346831,-4.39653 5.474488,-7.91691 3.646538,-6.03347 7.156477,-13.03607 7.805394,-15.57236 0.135723,-0.53048 0.140493,-0.65665 0.029,-0.76772 -0.289022,-0.28794 -2.913422,0.82198 -6.855316,2.89927 -4.691799,2.47249 -10.582586,5.06675 -16.730071,7.36782 -5.350625,2.00279 -8.506324,2.85814 -9.008167,2.44164 -0.511791,-0.42475 0.170358,-1.85039 1.979018,-4.136 1.646976,-2.08129 3.192247,-3.77714 6.429327,-7.05582 6.549494,-6.63367 14.117381,-13.29541 20.516573,-18.06002 1.546307,-1.15132 3.223905,-2.31016 10.125846,-6.99462 l 1.810602,-1.22889 1.311618,-5.33842 c 3.924346,-15.972643 4.989494,-20.021788 6.783057,-25.785778 0.776883,-2.496667 1.24889,-3.761393 1.983589,-5.314956 0.328955,-0.695587 0.686083,-1.520434 0.793613,-1.832994 0.18914,-0.549725 0.254596,-1.035029 0.139617,-1.035029 -0.03075,0 -0.972257,0.2029 -2.092225,0.450888 -2.747187,0.60829 -2.745236,0.607963 -4.673356,0.784952 -4.568415,0.419351 -13.332821,0.863038 -22.754888,1.151936 -25.21873,0.773255 -34.992318,1.748326 -46.555406,4.644644 -11.424261,2.861543 -20.090921,7.038385 -27.684281,13.342258 -1.66022,1.378278 -5.3743,5.091203 -6.76402,6.761895 -6.22452,7.483024 -10.70035,16.000814 -14.65186,27.883454 -1.80429,5.42572 -2.85349,9.09343 -2.99421,10.46695 -0.20048,1.95678 0.52848,1.64489 4.25503,-1.82052 3.03962,-2.82663 5.43488,-4.70499 9.25064,-7.25433 11.93765,-7.97566 29.284435,-15.73971 52.181884,-23.35549 7.031459,-2.3387 17.910317,-5.684242 26.837364,-8.253229 3.412685,-0.982087 3.934016,-1.102145 3.934016,-0.905968 0,0.234273 -4.868849,3.446451 -13.875174,9.154027 -10.673526,6.76413 -17.715651,11.38208 -25.958328,17.02248 -34.610642,23.68379 -59.624852,45.21819 -65.607552,56.48067 -0.59998,1.12948 -1.02059,2.17589 -1.27455,3.17097 l -0.18661,0.73116 0.23926,0.19374 c 0.29702,0.24051 0.54529,0.21257 2.7971,-0.31487 2.08969,-0.48948 2.8124,-0.58715 5.07877,-0.68639 3.07149,-0.13448 6.94258,0.0317 13.79235,0.592 11.25567,0.92075 14.94046,1.08355 23.65114,1.04492 4.74546,-0.021 7.133252,-0.0726 8.76337,-0.18928 z"
           id="path184" />
        <path
           style="fill:#0e9947;stroke-width:0.09958375"
           d="m -134.18429,206.5414 c -15.5314,-0.30651 -28.68332,-1.24172 -39.236,-2.79001 -3.2512,-0.47701 -3.77573,-0.63992 -4.17512,-1.29666 -0.38672,-0.63591 -0.36576,-1.70425 0.15019,-7.65616 1.51982,-17.5324 5.51701,-40.1235 9.66299,-54.61277 3.39625,-11.86915 7.42501,-22.42484 12.0899,-31.67656 4.30702,-8.541964 8.974,-15.645525 14.42638,-21.958214 1.45228,-1.681424 5.34926,-5.656974 6.93229,-7.072043 8.05021,-7.19609 17.12621,-12.261825 27.38553,-15.285126 1.84803,-0.544593 7.218575,-1.878244 9.77083,-2.426361 8.316615,-1.786059 15.438551,-2.456195 29.813713,-2.805308 2.272999,-0.0552 13.296921,-0.142557 24.497604,-0.194121 24.018506,-0.110574 35.0305077,-0.270972 41.2276744,-0.600511 2.8508937,-0.151598 2.9193875,-0.163537 3.4746565,-0.605656 0.9346135,-0.744144 1.2887034,-0.690677 1.158886,0.174987 -0.091727,0.611681 -0.5307415,1.842893 -1.1352846,3.183855 -1.46194931,3.242812 -3.2912133,10.591273 -5.8472195,23.489233 -2.0157645,10.171836 -2.8942824,14.524497 -3.2437317,16.071225 -0.235177,1.04094 -0.2736363,1.34981 -0.175616,1.41039 0.071302,0.0441 0.4730926,-0.0512 0.9303413,-0.22071 4.1538675,-1.53947 7.02730695,-2.572763 8.6838429,-3.122711 6.3347019,-2.103039 12.6661777,-3.731692 14.5071427,-3.731692 0.734121,0 0.716584,0.02806 -0.676702,1.08312 -4.659663,3.528502 -12.4848053,10.175303 -19.4674788,16.535983 -2.6934418,2.45352 -6.9126062,6.60307 -7.6699412,7.54339 -0.526668,0.65392 -0.58123,0.76822 -0.641747,1.34438 -0.506035,4.81747 -5.49791,20.03645 -10.381318,31.65004 -3.976538,9.4569 -8.391903,16.79862 -14.134161,23.50177 -1.273826,1.48698 -4.33044,4.59924 -5.912258,6.0199 -11.265113,10.11734 -25.94598,16.67357 -46.505613,20.76863 -11.161568,2.22315 -18.93167,2.9536 -34.9539,3.28593 -2.60162,0.054 -5.17835,0.0912 -5.72606,0.0828 -0.54771,-0.008 -2.72113,-0.0494 -4.82982,-0.091 z m 35.103277,-24.38301 c 7.637968,-0.50661 12.654949,-1.26472 18.82133,-2.8441 14.796284,-3.78972 26.819359,-10.98436 34.740769,-20.78896 2.817613,-3.48744 6.552362,-9.615 9.817723,-16.10782 2.044893,-4.06603 3.032276,-6.49136 2.973163,-7.30299 -0.02823,-0.38764 -0.05133,-0.41679 -0.353383,-0.44592 -0.543907,-0.0525 -2.402309,0.7685 -7.046019,3.11259 -5.289272,2.66997 -9.343715,4.48153 -14.439644,6.45176 -4.935142,1.90806 -8.683554,3.12259 -10.229303,3.31443 -0.536986,0.0667 -0.575933,0.057 -0.678634,-0.16842 -1.018154,-2.23461 16.213859,-19.40765 29.081972,-28.98243 0.848951,-0.63168 3.380868,-2.39575 5.626482,-3.92017 2.245614,-1.52441 4.573215,-3.10973 5.17244,-3.52293 l 1.089506,-0.75126 0.567398,-2.29043 c 0.312066,-1.25973 1.362376,-5.51694 2.334035,-9.460456 3.4355,-13.94325 5.514818,-21.133224 7.075834,-24.467192 1.037533,-2.215919 1.327919,-3.172756 1.000956,-3.298222 -0.07545,-0.02896 -1.123554,0.164082 -2.329105,0.428973 -2.609473,0.573371 -3.111196,0.651168 -5.450607,0.845173 -5.030165,0.417148 -12.648402,0.787679 -22.555721,1.09705 -22.467379,0.701578 -31.720612,1.517445 -41.924761,3.69655 -13.731264,2.932322 -23.843988,7.559958 -32.221138,14.744568 -8.04442,6.899246 -14.4897,16.737196 -19.2673,29.409236 -1.35637,3.59763 -3.50115,10.23776 -4.22981,13.09526 -0.69058,2.70822 -0.68476,3.5469 0.0251,3.61599 0.57779,0.0562 1.46841,-0.60714 3.91378,-2.91516 5.61576,-5.30034 13.10597,-10.22156 23.39799,-15.37295 11.88777,-5.95011 26.265482,-11.57522 44.06581,-17.24023 5.264684,-1.6755 15.822703,-4.863381 21.111756,-6.374467 3.15558,-0.901551 3.136888,-0.896807 3.136888,-0.796124 0,0.167259 -6.108258,4.153862 -14.34006,9.359151 -13.158062,8.32035 -24.687774,16.03317 -35.700777,23.8821 -28.395467,20.23736 -48.388867,37.90752 -54.497407,48.16479 -1.52273,2.55692 -2.31626,5.00735 -1.72417,5.32423 0.34551,0.18491 1.13649,0.1094 2.58834,-0.24709 1.99679,-0.4903 2.80409,-0.61712 4.79268,-0.7529 2.8592,-0.19523 7.10545,-0.02 14.68333,0.60608 6.01147,0.49664 12.33963,0.88338 16.87945,1.03159 2.11156,0.0689 12.54583,-0.0268 14.091097,-0.1293 z"
           id="path182" />
      </g>
    </g>
  </g>
</svg>
