<?xml version="1.0" encoding="UTF-8" standalone="no"?>
<svg
   xmlns:dc="http://purl.org/dc/elements/1.1/"
   xmlns:cc="http://creativecommons.org/ns#"
   xmlns:rdf="http://www.w3.org/1999/02/22-rdf-syntax-ns#"
   xmlns:svg="http://www.w3.org/2000/svg"
   xmlns="http://www.w3.org/2000/svg"
   id="svg8"
   version="1.1"
   viewBox="0 0 509.54229 179.80681"
   height="179.80681mm"
   width="509.5423mm">
  <defs
     id="defs2">
    <filter
       id="filter628"
       style="color-interpolation-filters:sRGB">
      <feFlood
         id="feFlood618"
         result="flood"
         flood-color="rgb(0,0,0)"
         flood-opacity="0.498039" />
      <feComposite
         id="feComposite620"
         result="composite1"
         operator="in"
         in2="SourceGraphic"
         in="flood" />
      <feGaussianBlur
         id="feGaussianBlur622"
         result="blur"
         stdDeviation="3"
         in="composite1" />
      <feOffset
         id="feOffset624"
         result="offset"
         dy="6"
         dx="6" />
      <feComposite
         id="feComposite626"
         result="composite2"
         operator="over"
         in2="offset"
         in="SourceGraphic" />
    </filter>
    <filter
       id="filter916"
       style="color-interpolation-filters:sRGB">
      <feFlood
         id="feFlood906"
         result="flood"
         flood-color="rgb(0,0,0)"
         flood-opacity="0.498039" />
      <feComposite
         id="feComposite908"
         result="composite1"
         operator="in"
         in2="SourceGraphic"
         in="flood" />
      <feGaussianBlur
         id="feGaussianBlur910"
         result="blur"
         stdDeviation="1"
         in="composite1" />
      <feOffset
         id="feOffset912"
         result="offset"
         dy="1.5"
         dx="1.5" />
      <feComposite
         id="feComposite914"
         result="composite2"
         operator="over"
         in2="offset"
         in="SourceGraphic" />
    </filter>
  </defs>
  <metadata
     id="metadata5">
    <rdf:RDF>
      <cc:Work
         rdf:about="">
        <dc:format>image/svg+xml</dc:format>
        <dc:type
           rdf:resource="http://purl.org/dc/dcmitype/StillImage" />
        <dc:title></dc:title>
      </cc:Work>
    </rdf:RDF>
  </metadata>
  <g
     transform="translate(200.19639,-40.648637)"
     id="layer1">
    <g
       transform="translate(1.5119048,-0.75595238)"
       id="g924">
      <g
         id="g180"
         transform="translate(3.4076867,-1.236122)"
         style="filter:url(#filter628)">
        <path
           style="fill:#6cbe8d;stroke-width:0.09958375"
           d="m -135.37929,206.68865 c -15.09736,-0.3555 -27.16675,-1.2097 -37.14474,-2.62889 -4.37198,-0.62184 -4.83589,-0.76221 -5.25305,-1.58945 -0.36834,-0.73046 -0.3087,-2.68001 0.27736,-9.06592 1.34155,-14.6181 4.45343,-33.16818 7.87676,-46.95374 3.57082,-14.37952 8.94577,-28.93791 14.72817,-39.89217 7.20106,-13.641807 15.55513,-23.889934 25.6399,-31.453076 6.84027,-5.129905 15.14317,-9.165142 23.55156,-11.446134 8.733284,-2.369129 16.030913,-3.665823 23.850307,-4.237889 8.050759,-0.588994 14.851772,-0.727436 41.924761,-0.853426 11.33761,-0.05276 22.876878,-0.141161 25.642817,-0.196442 8.7369704,-0.174622 14.45622474,-0.39546 15.3461749,-0.592565 0.1973551,-0.04371 0.5934893,-0.264964 0.8803005,-0.491676 0.6414588,-0.507046 1.0513554,-0.553846 1.2117251,-0.13835 0.1547631,0.400986 -0.1662152,1.592062 -0.8520485,3.161785 -1.0505987,2.404556 -1.76819923,4.730355 -3.02646985,9.808999 -1.03375905,4.17251 -1.66771915,7.119497 -3.21334865,14.937563 -2.0395948,10.316604 -3.1700597,15.890851 -3.3373305,16.456211 -0.032912,0.11125 0.00229,0.17428 0.097293,0.17428 0.081878,0 1.6197298,-0.54222 3.4174556,-1.20493 4.02852137,-1.485059 6.953356,-2.477132 9.9407093,-3.371774 7.0501221,-2.111349 11.3027561,-2.954425 11.3027561,-2.240749 0,0.07266 -0.63858,0.620913 -1.419068,1.218345 -8.1095338,6.207528 -22.9668624,19.334348 -26.681725,23.573968 -0.850156,0.97025 -0.896452,1.07754 -1.0742,2.4896 -0.536746,4.26393 -4.767412,17.25732 -9.202933,28.26438 -1.574728,3.9078 -2.499691,6.00163 -3.900964,8.83057 -12.318371,24.86879 -31.624983,38.0379 -65.171981,44.45402 -9.006621,1.72259 -15.459301,2.40976 -26.788031,2.85276 -2.51064,0.0982 -16.02263,0.19591 -18.62216,0.1347 z m 37.44349,-24.77499 c 8.656188,-0.61947 15.805128,-1.96252 22.954056,-4.31232 8.728894,-2.86912 15.953825,-6.77584 22.389167,-12.10644 1.538519,-1.2744 5.122887,-4.85155 6.360125,-6.34732 1.869625,-2.26029 3.346831,-4.39653 5.474488,-7.91691 3.646538,-6.03347 7.156477,-13.03607 7.805394,-15.57236 0.135723,-0.53048 0.140493,-0.65665 0.029,-0.76772 -0.289022,-0.28794 -2.913422,0.82198 -6.855316,2.89927 -4.691799,2.47249 -10.582586,5.06675 -16.730071,7.36782 -5.350625,2.00279 -8.506324,2.85814 -9.008167,2.44164 -0.511791,-0.42475 0.170358,-1.85039 1.979018,-4.136 1.646976,-2.08129 3.192247,-3.77714 6.429327,-7.05582 6.549494,-6.63367 14.117381,-13.29541 20.516573,-18.06002 1.546307,-1.15132 3.223905,-2.31016 10.125846,-6.99462 l 1.810602,-1.22889 1.311618,-5.33842 c 3.924346,-15.972643 4.989494,-20.021788 6.783057,-25.785778 0.776883,-2.496667 1.24889,-3.761393 1.983589,-5.314956 0.328955,-0.695587 0.686083,-1.520434 0.793613,-1.832994 0.18914,-0.549725 0.254596,-1.035029 0.139617,-1.035029 -0.03075,0 -0.972257,0.2029 -2.092225,0.450888 -2.747187,0.60829 -2.745236,0.607963 -4.673356,0.784952 -4.568415,0.419351 -13.332821,0.863038 -22.754888,1.151936 -25.21873,0.773255 -34.992318,1.748326 -46.555406,4.644644 -11.424261,2.861543 -20.090921,7.038385 -27.684281,13.342258 -1.66022,1.378278 -5.3743,5.091203 -6.76402,6.761895 -6.22452,7.483024 -10.70035,16.000814 -14.65186,27.883454 -1.80429,5.42572 -2.85349,9.09343 -2.99421,10.46695 -0.20048,1.95678 0.52848,1.64489 4.25503,-1.82052 3.03962,-2.82663 5.43488,-4.70499 9.25064,-7.25433 11.93765,-7.97566 29.284435,-15.73971 52.181884,-23.35549 7.031459,-2.3387 17.910317,-5.684242 26.837364,-8.253229 3.412685,-0.982087 3.934016,-1.102145 3.934016,-0.905968 0,0.234273 -4.868849,3.446451 -13.875174,9.154027 -10.673526,6.76413 -17.715651,11.38208 -25.958328,17.02248 -34.610642,23.68379 -59.624852,45.21819 -65.607552,56.48067 -0.59998,1.12948 -1.02059,2.17589 -1.27455,3.17097 l -0.18661,0.73116 0.23926,0.19374 c 0.29702,0.24051 0.54529,0.21257 2.7971,-0.31487 2.08969,-0.48948 2.8124,-0.58715 5.07877,-0.68639 3.07149,-0.13448 6.94258,0.0317 13.79235,0.592 11.25567,0.92075 14.94046,1.08355 23.65114,1.04492 4.74546,-0.021 7.133252,-0.0726 8.76337,-0.18928 z"
           id="path184" />
        <path
           style="fill:#0e9947;stroke-width:0.09958375"
           d="m -134.18429,206.5414 c -15.5314,-0.30651 -28.68332,-1.24172 -39.236,-2.79001 -3.2512,-0.47701 -3.77573,-0.63992 -4.17512,-1.29666 -0.38672,-0.63591 -0.36576,-1.70425 0.15019,-7.65616 1.51982,-17.5324 5.51701,-40.1235 9.66299,-54.61277 3.39625,-11.86915 7.42501,-22.42484 12.0899,-31.67656 4.30702,-8.541964 8.974,-15.645525 14.42638,-21.958214 1.45228,-1.681424 5.34926,-5.656974 6.93229,-7.072043 8.05021,-7.19609 17.12621,-12.261825 27.38553,-15.285126 1.84803,-0.544593 7.218575,-1.878244 9.77083,-2.426361 8.316615,-1.786059 15.438551,-2.456195 29.813713,-2.805308 2.272999,-0.0552 13.296921,-0.142557 24.497604,-0.194121 24.018506,-0.110574 35.0305077,-0.270972 41.2276744,-0.600511 2.8508937,-0.151598 2.9193875,-0.163537 3.4746565,-0.605656 0.9346135,-0.744144 1.2887034,-0.690677 1.158886,0.174987 -0.091727,0.611681 -0.5307415,1.842893 -1.1352846,3.183855 -1.46194931,3.242812 -3.2912133,10.591273 -5.8472195,23.489233 -2.0157645,10.171836 -2.8942824,14.524497 -3.2437317,16.071225 -0.235177,1.04094 -0.2736363,1.34981 -0.175616,1.41039 0.071302,0.0441 0.4730926,-0.0512 0.9303413,-0.22071 4.1538675,-1.53947 7.02730695,-2.572763 8.6838429,-3.122711 6.3347019,-2.103039 12.6661777,-3.731692 14.5071427,-3.731692 0.734121,0 0.716584,0.02806 -0.676702,1.08312 -4.659663,3.528502 -12.4848053,10.175303 -19.4674788,16.535983 -2.6934418,2.45352 -6.9126062,6.60307 -7.6699412,7.54339 -0.526668,0.65392 -0.58123,0.76822 -0.641747,1.34438 -0.506035,4.81747 -5.49791,20.03645 -10.381318,31.65004 -3.976538,9.4569 -8.391903,16.79862 -14.134161,23.50177 -1.273826,1.48698 -4.33044,4.59924 -5.912258,6.0199 -11.265113,10.11734 -25.94598,16.67357 -46.505613,20.76863 -11.161568,2.22315 -18.93167,2.9536 -34.9539,3.28593 -2.60162,0.054 -5.17835,0.0912 -5.72606,0.0828 -0.54771,-0.008 -2.72113,-0.0494 -4.82982,-0.091 z m 35.103277,-24.38301 c 7.637968,-0.50661 12.654949,-1.26472 18.82133,-2.8441 14.796284,-3.78972 26.819359,-10.98436 34.740769,-20.78896 2.817613,-3.48744 6.552362,-9.615 9.817723,-16.10782 2.044893,-4.06603 3.032276,-6.49136 2.973163,-7.30299 -0.02823,-0.38764 -0.05133,-0.41679 -0.353383,-0.44592 -0.543907,-0.0525 -2.402309,0.7685 -7.046019,3.11259 -5.289272,2.66997 -9.343715,4.48153 -14.439644,6.45176 -4.935142,1.90806 -8.683554,3.12259 -10.229303,3.31443 -0.536986,0.0667 -0.575933,0.057 -0.678634,-0.16842 -1.018154,-2.23461 16.213859,-19.40765 29.081972,-28.98243 0.848951,-0.63168 3.380868,-2.39575 5.626482,-3.92017 2.245614,-1.52441 4.573215,-3.10973 5.17244,-3.52293 l 1.089506,-0.75126 0.567398,-2.29043 c 0.312066,-1.25973 1.362376,-5.51694 2.334035,-9.460456 3.4355,-13.94325 5.514818,-21.133224 7.075834,-24.467192 1.037533,-2.215919 1.327919,-3.172756 1.000956,-3.298222 -0.07545,-0.02896 -1.123554,0.164082 -2.329105,0.428973 -2.609473,0.573371 -3.111196,0.651168 -5.450607,0.845173 -5.030165,0.417148 -12.648402,0.787679 -22.555721,1.09705 -22.467379,0.701578 -31.720612,1.517445 -41.924761,3.69655 -13.731264,2.932322 -23.843988,7.559958 -32.221138,14.744568 -8.04442,6.899246 -14.4897,16.737196 -19.2673,29.409236 -1.35637,3.59763 -3.50115,10.23776 -4.22981,13.09526 -0.69058,2.70822 -0.68476,3.5469 0.0251,3.61599 0.57779,0.0562 1.46841,-0.60714 3.91378,-2.91516 5.61576,-5.30034 13.10597,-10.22156 23.39799,-15.37295 11.88777,-5.95011 26.265482,-11.57522 44.06581,-17.24023 5.264684,-1.6755 15.822703,-4.863381 21.111756,-6.374467 3.15558,-0.901551 3.136888,-0.896807 3.136888,-0.796124 0,0.167259 -6.108258,4.153862 -14.34006,9.359151 -13.158062,8.32035 -24.687774,16.03317 -35.700777,23.8821 -28.395467,20.23736 -48.388867,37.90752 -54.497407,48.16479 -1.52273,2.55692 -2.31626,5.00735 -1.72417,5.32423 0.34551,0.18491 1.13649,0.1094 2.58834,-0.24709 1.99679,-0.4903 2.80409,-0.61712 4.79268,-0.7529 2.8592,-0.19523 7.10545,-0.02 14.68333,0.60608 6.01147,0.49664 12.33963,0.88338 16.87945,1.03159 2.11156,0.0689 12.54583,-0.0268 14.091097,-0.1293 z"
           id="path182" />
      </g>
      <g
         id="g163"
         style="filter:url(#filter916)">
        <path
           style="fill:#5e5e5e;stroke-width:0.26458332"
           d="m -28.030762,201.63911 c -0.04679,-0.0468 -9.300922,-0.0833 -20.564743,-0.0811 -23.181598,0.004 -29.607801,-0.14703 -29.607801,-0.69811 0,-0.19647 0.18887,-0.35722 0.419714,-0.35722 0.230841,0 1.272638,-0.23042 2.315104,-0.51204 1.042464,-0.28163 2.550234,-0.68916 3.350599,-0.90563 0.800364,-0.21646 2.110052,-0.65117 2.910417,-0.96602 0.800364,-0.31484 1.815197,-0.6626 2.255184,-0.77279 0.439983,-0.11019 1.094827,-0.3678 1.455208,-0.57246 0.559662,-0.31783 14.258486,-0.37148 93.920858,-0.36783 92.199222,0.004 133.777882,0.19801 169.201042,0.78861 14.67332,0.24465 29.88249,0.59678 33.86667,0.78411 1.60073,0.0753 4.81541,0.2049 7.14375,0.28808 4.69175,0.16761 5.63507,0.24221 5.85599,0.46314 0.42892,0.42893 -0.43526,0.66845 -3.00762,0.83361 -1.5666,0.10058 -3.56275,0.23091 -4.43587,0.28962 -2.11728,0.14235 -17.48721,0.53713 -30.82396,0.79171 -14.14346,0.26997 -43.59389,0.59805 -72.62813,0.80907 -18.03318,0.13106 -161.516144,0.29552 -161.626412,0.18525 z M 75.051961,190.11778 c -0.184732,-0.22811 -0.07461,-1.23378 0.354912,-3.24114 0.342503,-1.60073 1.753103,-8.25809 3.134651,-14.79412 1.459071,-6.9028 2.655226,-11.97664 2.853849,-12.10544 0.188066,-0.12196 1.592104,-0.19164 3.120072,-0.15484 l 2.778125,0.0669 0.01587,0.85358 c 0.0209,1.12951 0.302181,1.36124 0.79629,0.65581 0.605658,-0.86471 2.516294,-1.88301 3.885116,-2.07063 2.078407,-0.28487 3.525969,0.079 4.66979,1.17381 0.887386,0.84935 1.062328,1.22202 1.358317,2.89329 0.416613,2.35235 0.105146,5.29819 -1.051057,9.94121 -1.323843,5.31628 -2.93833,8.09956 -5.385858,9.28499 -1.94609,0.94255 -3.266255,1.09053 -5.064734,0.5677 -1.215257,-0.35329 -1.608349,-0.61319 -2.043906,-1.3514 -0.296598,-0.50269 -0.641985,-0.91399 -0.767503,-0.91399 -0.30107,0 -0.876406,2.30061 -2.01811,8.06979 -0.273129,1.38005 -0.45503,1.45521 -3.522212,1.45521 -1.957256,0 -2.929256,-0.10325 -3.113485,-0.33073 z M 87.5522,177.96766 c 1.042618,-0.47505 1.600809,-1.64222 2.495921,-5.219 1.471242,-5.87894 1.348978,-8.00629 -0.470218,-8.18178 -1.555644,-0.15006 -2.513303,1.22458 -3.485012,5.00249 -1.829038,7.11102 -1.380516,9.69221 1.459309,8.39829 z m -49.850839,5.1904 c -2.164958,-0.46947 -3.421539,-1.45161 -4.079629,-3.18861 -1.260395,-3.32678 0.522338,-12.37732 3.222916,-16.36206 1.199105,-1.76928 2.548274,-2.85671 4.501113,-3.62786 2.018951,-0.79727 6.922095,-0.87467 8.827667,-0.13936 1.467871,0.56641 2.717893,1.88792 3.105274,3.28288 0.652727,2.35045 0.03448,7.47231 -1.431329,11.85772 -1.651614,4.94132 -4.03166,7.30153 -8.268158,8.19924 -2.195619,0.46525 -3.656283,0.4598 -5.877854,-0.022 z m 5.486368,-4.88805 c 0.316926,-0.29527 0.754796,-0.88215 0.973045,-1.3042 0.526124,-1.01741 1.607627,-5.31912 2.164662,-8.61001 0.393192,-2.32292 0.401566,-2.7427 0.06861,-3.43958 -0.301027,-0.63005 -0.573336,-0.81008 -1.320422,-0.87294 -1.847921,-0.15548 -2.880219,1.71837 -4.085899,7.41682 -0.844876,3.99317 -0.92379,6.08501 -0.257334,6.82143 0.612323,0.67661 1.724306,0.6714 2.457336,-0.0115 z m 77.311051,5.11655 c -4.43309,-0.74208 -5.97673,-3.22942 -5.32154,-8.57481 0.64331,-5.24837 2.3754,-10.07117 4.45757,-12.41157 1.97546,-2.22046 5.24835,-3.31929 9.26206,-3.10963 6.45339,0.33711 7.95279,4.0545 5.48073,13.58823 -1.69878,6.55154 -4.46349,9.61958 -9.3809,10.4101 -1.71239,0.27528 -3.2389,0.30843 -4.49792,0.0977 z m 4.74038,-5.31063 c 0.88559,-0.88559 1.65357,-3.11092 2.53272,-7.33888 1.07474,-5.16854 0.88281,-6.74687 -0.82047,-6.74687 -1.95858,0 -3.05575,2.20055 -4.33506,8.69471 -0.60564,3.07433 -0.60598,4.99601 0,5.72493 0.53607,0.64591 1.80559,0.48436 2.62384,-0.33389 z m 102.68045,4.96425 c -3.24633,-0.19096 -3.96875,-0.77509 -3.96875,-3.20906 0,-1.00618 0.20479,-2.08563 2.10148,-11.07669 0.44493,-2.10908 0.80894,-3.92479 0.80894,-4.03489 0,-0.28197 -5.75823,-0.25095 -5.9331,0.032 -0.12964,0.2098 -1.38567,5.94873 -3.16108,14.44347 -0.4482,2.14449 -0.81156,3.27579 -1.12601,3.50572 -0.54235,0.39657 -5.30392,0.4697 -5.90296,0.0907 -0.32147,-0.20342 -0.10094,-1.58664 1.42306,-8.92563 0.99192,-4.77671 1.81798,-8.79876 1.83565,-8.93789 0.0177,-0.13914 -0.47165,-0.32544 -1.08741,-0.41401 -0.61576,-0.0886 -1.20282,-0.24429 -1.30458,-0.34605 -0.22982,-0.2298 0.41256,-3.6283 0.77123,-4.0802 0.14436,-0.1819 0.77952,-0.33072 1.41142,-0.33072 1.31517,0 1.45431,-0.16923 1.95834,-2.38125 0.6976,-3.06159 2.1304,-4.72184 4.55827,-5.28191 1.83295,-0.42283 6.0152,-0.35096 6.19072,0.10638 0.18137,0.47268 -0.38817,3.33679 -0.75295,3.78646 -0.14758,0.1819 -0.60531,0.33073 -1.01722,0.33073 -1.2818,0 -2.07687,0.53384 -2.39966,1.61122 -0.51356,1.71408 -0.33914,1.82837 2.79035,1.82837 2.4094,0 2.78598,-0.0601 2.90245,-0.46303 0.0736,-0.25466 0.38505,-1.64838 0.6921,-3.09716 0.30702,-1.44878 0.68611,-2.78823 0.8424,-2.97656 0.20074,-0.24188 1.13168,-0.34242 3.17051,-0.34242 2.40202,0 2.91359,0.0711 3.04882,0.42343 0.0894,0.23289 -0.10129,1.65955 -0.42365,3.17036 -0.3224,1.51081 -0.51129,2.86808 -0.41977,3.01615 0.0915,0.14808 0.69887,0.26923 1.3497,0.26923 0.72392,0 1.2343,0.13289 1.31466,0.34231 0.14261,0.37161 -0.51639,3.81848 -0.78055,4.08263 -0.089,0.089 -0.81611,0.21604 -1.61584,0.28236 -1.41277,0.11716 -1.46153,0.14784 -1.71632,1.08008 -0.52901,1.93546 -2.38525,10.91045 -2.38525,11.53269 0,0.73071 0.8839,1.46534 1.76305,1.46534 0.32285,0 0.66744,0.1302 0.76579,0.28932 0.20547,0.33248 -0.37322,3.39449 -0.72822,3.85313 -0.30366,0.39229 -2.13068,0.52282 -4.97562,0.35547 z M 9.3740876,182.84239 c -1.0912369,-0.051 -2.0689967,-0.17757 -2.1728006,-0.28137 -0.103804,-0.1038 0.2176806,-2.09229 0.7144147,-4.41885 0.4967314,-2.32656 1.6851894,-7.92105 2.6410183,-12.4322 0.955828,-4.51115 1.927293,-9.09505 2.158814,-10.18646 0.69228,-3.26349 0.561237,-3.175 4.701739,-3.175 2.658094,0 3.60743,0.0892 3.832315,0.3602 0.170055,0.2049 0.581483,3.76963 0.954288,8.26823 0.788274,9.51198 0.876732,10.21825 1.263653,10.08928 0.164034,-0.0547 1.159402,-4.1175 2.21193,-9.0285 1.052528,-4.911 2.055627,-9.10012 2.229109,-9.30915 0.460537,-0.55491 5.758768,-0.54871 5.972011,0.007 0.08169,0.21288 -0.463632,3.27874 -1.211826,6.81302 -0.748194,3.53428 -2.141902,10.1169 -3.097133,14.62805 -1.167122,5.51183 -1.873734,8.31056 -2.154338,8.53281 -0.282072,0.22342 -1.457878,0.33073 -3.623712,0.33073 -2.152849,0 -3.351329,-0.10865 -3.648059,-0.33073 -0.370155,-0.27703 -0.580282,-1.95318 -1.294133,-10.32315 -0.555448,-6.51264 -0.948965,-9.96025 -1.13002,-9.90003 -0.275873,0.0918 -0.74664,2.12508 -3.196658,13.80704 -1.297242,6.18539 -1.537536,6.79894 -2.621804,6.6943 -0.299609,-0.0289 -1.437571,-0.0943 -2.5288084,-0.14521 z m 45.0450034,0.0225 c -0.181901,-0.0734 -0.32956,-0.39142 -0.328131,-0.70672 0.0048,-1.06129 4.493464,-21.68348 4.800063,-22.05291 0.230973,-0.2783 0.973021,-0.34775 3.108187,-0.29088 l 2.804777,0.0747 0.08212,0.99218 c 0.04516,0.54571 0.147039,0.99219 0.226388,0.99219 0.07935,0 0.50478,-0.30335 0.945398,-0.6741 1.343414,-1.13041 2.883702,-1.77102 4.58701,-1.90774 4.061487,-0.32602 5.822791,1.60737 5.154851,5.6585 -0.164862,0.99998 -1.047724,5.31633 -1.961886,9.5919 -1.309608,6.12495 -1.770486,7.85439 -2.173023,8.15386 -0.385392,0.28674 -1.171654,0.35945 -3.201418,0.29603 -1.47981,-0.0462 -2.772553,-0.16635 -2.872764,-0.26691 -0.100208,-0.10055 0.556903,-3.66453 1.460248,-7.91994 0.903349,-4.25541 1.642452,-8.15695 1.642452,-8.67008 0,-0.99667 -0.766271,-1.88027 -1.630601,-1.88027 -0.693684,0 -2.170403,1.08955 -2.690741,1.98528 -0.253317,0.43606 -0.889423,2.81691 -1.413568,5.29076 -2.146316,10.13016 -2.323394,10.85452 -2.732728,11.17865 -0.411086,0.32552 -5.075711,0.45043 -5.806634,0.1555 z m 44.676351,-0.0665 c -0.305964,-0.19375 -0.0721,-1.6269 1.370198,-8.39647 0.95655,-4.48956 2.0061,-9.47253 2.33238,-11.07326 0.32629,-1.60073 0.70654,-3.05925 0.84503,-3.24115 0.32387,-0.42543 5.50624,-0.46188 5.92643,-0.0417 0.16377,0.16376 0.22894,0.73717 0.15039,1.32292 -0.0763,0.56863 -0.0273,1.03388 0.10885,1.03388 0.13612,0 0.6578,-0.4313 1.15929,-0.95845 1.63341,-1.71696 5.29114,-2.9136 5.69434,-1.86291 0.1697,0.44225 -0.84333,5.15689 -1.20055,5.58731 -0.15086,0.18176 -1.00385,0.32838 -1.99813,0.34346 -1.33638,0.0203 -1.9917,0.1768 -2.85284,0.68146 -1.94599,1.14041 -2.09487,1.57478 -4.54314,13.2548 -0.41391,1.9746 -0.75784,3.00158 -1.08545,3.24114 -0.5511,0.40298 -5.303998,0.49065 -5.906798,0.10896 z m 38.029118,-0.089 c -0.36383,-0.29441 -0.21074,-1.26049 1.39398,-8.7974 0.99148,-4.65666 1.80748,-8.67502 1.81333,-8.92968 0.008,-0.3426 -0.20029,-0.46302 -0.80047,-0.46302 -0.44614,0 -1.02759,-0.11584 -1.29212,-0.25741 -0.44987,-0.24077 -0.45697,-0.372 -0.10941,-2.03004 0.20437,-0.97495 0.49766,-1.92455 0.65175,-2.11021 0.15409,-0.18567 0.82539,-0.37348 1.4918,-0.41735 l 1.21163,-0.0798 0.56775,-2.11666 c 0.96109,-3.58305 1.73738,-4.5624 4.19496,-5.29223 1.6767,-0.49792 6.08137,-0.54022 6.47809,-0.0622 0.35742,0.43066 -0.27514,3.60854 -0.78224,3.92992 -0.19595,0.12418 -0.73004,0.22761 -1.18687,0.22984 -1.26188,0.006 -1.97615,0.7394 -2.14048,2.1973 l -0.14047,1.24634 h 1.23333 c 1.52564,0 1.64444,0.24683 1.21478,2.5239 -0.37025,1.96229 -0.67548,2.2386 -2.47298,2.2386 h -1.18681 l -0.40391,1.78593 c -0.22215,0.98227 -1.07567,5.00063 -1.8967,8.92969 -1.0151,4.85785 -1.62845,7.24958 -1.91682,7.47448 -0.27215,0.21226 -1.33551,0.33073 -2.96873,0.33073 -1.6414,0 -2.68978,-0.1174 -2.95339,-0.33073 z m 12.80911,0.137 c -0.68995,-0.0621 -1.12447,-0.23328 -1.12447,-0.44286 0,-0.18788 0.28199,-1.63955 0.62663,-3.22594 0.34465,-1.58639 1.37708,-6.45622 2.29431,-10.82185 0.91721,-4.36562 1.78089,-8.08632 1.91929,-8.26823 0.35817,-0.47072 5.83478,-0.461 6.22655,0.011 0.20521,0.24729 0.11345,1.10678 -0.33192,3.10885 -0.33856,1.5219 -1.06313,4.91021 -1.61015,7.52958 -2.2053,10.56015 -2.46457,11.61544 -2.93891,11.96229 -0.44853,0.32797 -2.41779,0.3852 -5.06133,0.1471 z m 12.96258,-0.20158 c -1.51104,-0.6567 -1.72903,-2.2343 -0.86916,-6.29004 0.28485,-1.34353 0.9397,-4.42776 1.45521,-6.85384 0.51551,-2.42609 0.93731,-4.52378 0.93731,-4.66152 0,-0.13775 -0.49067,-0.31626 -1.09037,-0.3967 -1.50104,-0.20133 -1.61819,-0.39115 -1.27162,-2.06037 0.45252,-2.17938 0.82942,-2.62555 2.21798,-2.62555 1.3366,0 1.19785,0.24618 2.01306,-3.57188 0.3107,-1.45521 0.6867,-2.79466 0.83555,-2.97656 0.34285,-0.41902 5.78824,-0.46332 6.20109,-0.0504 0.19733,0.19732 0.0942,1.14238 -0.34845,3.19295 -0.34584,1.60196 -0.56018,3.02365 -0.47636,3.15929 0.0838,0.13565 0.68493,0.24664 1.33575,0.24664 0.77478,0 1.2328,0.12893 1.32662,0.37344 0.0788,0.2054 -0.0185,1.18767 -0.21624,2.18282 l -0.35955,1.80936 -1.52206,0.16457 c -0.83715,0.0905 -1.59777,0.24024 -1.69027,0.33274 -0.20447,0.20447 -2.70536,11.71184 -2.71497,12.49241 -0.009,0.74263 0.7965,1.43007 1.67595,1.43007 0.39331,0 0.78084,0.17133 0.86119,0.38073 0.18138,0.47268 -0.38817,3.33679 -0.75295,3.78646 -0.39229,0.48358 -6.40482,0.43214 -7.54771,-0.0646 z m 22.62388,0.21292 c -0.25466,-0.0665 -0.46302,-0.29243 -0.46302,-0.50196 0,-0.20953 0.58918,-3.14759 1.30929,-6.52903 0.72012,-3.38145 2.10447,-9.89855 3.07634,-14.48245 0.97187,-4.58391 1.88857,-8.48684 2.03708,-8.67317 0.19809,-0.24852 1.08794,-0.31901 3.33981,-0.26458 2.92764,0.0708 3.07358,0.10096 3.15201,0.65194 0.0452,0.31775 -0.34171,2.54901 -0.8599,4.95835 -0.95774,4.45321 -1.11649,5.70871 -0.72184,5.70871 0.25935,0 0.80156,-0.67312 4.79547,-5.95313 1.65113,-2.18281 3.30713,-4.29954 3.68001,-4.70384 l 0.678,-0.73508 3.29512,0.0736 c 2.04663,0.0457 3.33078,0.18111 3.38928,0.35732 0.091,0.27426 -0.58793,1.14367 -6.99619,8.95864 -1.63711,1.99648 -2.97656,3.77186 -2.97656,3.94531 0,0.30514 1.75199,6.19208 3.94943,13.27069 1.31938,4.25012 1.42447,4.10104 -2.8911,4.10104 -2.05637,0 -3.21434,-0.10948 -3.49824,-0.33073 -0.25217,-0.19651 -0.97695,-2.41816 -1.78602,-5.47453 -0.74887,-2.82909 -1.42113,-5.24011 -1.49386,-5.35781 -0.25318,-0.40966 -0.55441,-0.20568 -1.69661,1.14892 -1.08903,1.2915 -1.19576,1.57229 -2.03685,5.35781 -0.57337,2.5807 -1.04206,4.11196 -1.32397,4.32561 -0.4222,0.31995 -4.87659,0.43087 -5.95768,0.14834 z m -31.03948,-26.039 c -0.20273,-0.32802 0.35877,-3.95286 0.69709,-4.50029 0.27948,-0.4522 5.622,-0.55702 6.21697,-0.12198 0.35422,0.25901 0.35264,0.50768 -0.0143,2.25237 -0.2269,1.07866 -0.54345,2.11891 -0.70342,2.31166 -0.37301,0.44946 -5.92225,0.50161 -6.19628,0.0582 z m 2.62863,-7.743 c -2.28298,-0.74552 -3.26858,-1.9631 -3.27125,-4.04116 -0.003,-1.65641 0.0471,-1.68195 3.24225,-1.68195 h 2.40697 l 0.84823,0.92604 c 0.70387,0.76845 1.03193,0.92604 1.9278,0.92604 1.44235,0 2.74537,-1.13627 3.43168,-2.99252 0.59557,-1.61078 0.97316,-3.88664 0.64484,-3.88664 -0.12589,0 -0.62809,0.41189 -1.11604,0.91531 -1.69161,1.7453 -5.63226,2.34678 -7.43146,1.13431 -1.43467,-0.96684 -1.9309,-2.09812 -2.05219,-4.67864 -0.23148,-4.9248 1.75893,-12.01637 4.26593,-15.19899 2.41771,-3.06927 8.27858,-3.38661 9.64449,-0.52222 0.51676,1.08362 0.88302,1.02607 1.19766,-0.18819 0.12936,-0.4992 0.37296,-0.99529 0.54134,-1.10243 0.16836,-0.10714 1.47071,-0.19663 2.89412,-0.19885 2.05941,-0.003 2.61911,0.077 2.74034,0.39297 0.0838,0.21836 -0.58507,3.87953 -1.48637,8.13593 -3.71073,17.52388 -3.76775,17.71109 -6.04137,19.83781 -1.96228,1.83547 -3.69972,2.3868 -7.85476,2.49248 -2.38392,0.0606 -3.77492,-0.022 -4.53221,-0.2693 z m 8.82581,-13.71063 c 0.69345,-0.5755 1.40015,-2.31049 2.06516,-5.07 1.29942,-5.39209 0.76493,-7.65756 -1.57589,-6.6795 -1.22957,0.51374 -2.12857,2.3259 -2.94981,5.94601 -0.81156,3.57742 -0.83421,5.13256 -0.0857,5.88107 0.59306,0.59306 1.78181,0.55685 2.54624,-0.0776 z m -120.013955,6.64407 c -4.057688,-0.79744 -5.452798,-3.25095 -4.819547,-8.47589 0.907076,-7.48423 3.512338,-12.72522 7.178413,-14.44076 4.134757,-1.93486 10.603696,-1.25149 12.144997,1.28298 0.904816,1.48785 1.176491,3.48473 0.843663,6.20113 -0.674952,5.50868 -2.463683,10.39402 -4.61687,12.60949 -2.395162,2.46444 -6.739621,3.60739 -10.730656,2.82305 z m 4.964062,-4.91077 c 0.34031,-0.23836 0.892005,-1.05128 1.225994,-1.80648 0.763326,-1.72602 1.979563,-7.085 2.168073,-9.55296 0.179133,-2.34519 -0.125008,-3.02384 -1.355156,-3.02384 -1.890221,0 -2.79635,1.57014 -4.0463,7.01146 -0.36771,1.60073 -0.685218,3.84202 -0.705569,4.98065 -0.03162,1.7691 0.0377,2.1251 0.476588,2.44739 0.677064,0.49721 1.47487,0.47716 2.23637,-0.0562 z m 35.712678,4.94405 c -2.309998,-0.42308 -3.631301,-1.19323 -4.201107,-2.44873 -0.554249,-1.2212 -0.682493,-3.20645 -0.276146,-4.2752 0.240639,-0.63294 0.358087,-0.66375 2.844271,-0.74615 1.426289,-0.0473 2.725843,0.005 2.887901,0.11627 0.162057,0.11122 0.294666,0.67981 0.294666,1.26354 0,1.50856 0.626851,2.10877 2.202418,2.10877 1.104794,0 1.352497,-0.1116 2.075656,-0.93525 0.6096,-0.6943 0.821161,-1.19364 0.821161,-1.93825 0,-1.35078 -0.632883,-1.88712 -3.643127,-3.0874 -4.071355,-1.62338 -5.095875,-2.58732 -5.294418,-4.98141 -0.249132,-3.00426 1.659546,-6.5598 4.223649,-7.8679 2.881763,-1.47017 8.228807,-1.70784 10.712318,-0.47616 1.787653,0.88657 2.468243,2.0058 2.468243,4.05904 0,0.91325 -0.13935,1.76712 -0.3175,1.94525 -0.43074,0.43073 -5.019673,0.43073 -5.450415,0 -0.174625,-0.17463 -0.3175,-0.69583 -0.3175,-1.15823 0,-1.1146 -0.615712,-1.57272 -2.07047,-1.54054 -0.990415,0.0219 -1.323419,0.16996 -1.943603,0.86407 -1.535694,1.71874 -0.712443,3.13588 2.460255,4.23504 4.790969,1.65981 5.860547,2.8027 5.7268,6.11924 -0.210846,5.22759 -3.941365,8.58425 -9.854353,8.86684 -1.168109,0.0558 -2.675017,5.2e-4 -3.348699,-0.12284 z m 41.309235,0.0802 c -2.63228,-0.3964 -4.28019,-1.40957 -5.05007,-3.1049 -1.3321,-2.93341 0.28135,-12.27186 2.8167,-16.30259 2.12256,-3.37446 5.67216,-4.97105 10.44752,-4.69922 3.67398,0.20913 5.67552,1.46232 6.36257,3.98365 0.39931,1.46547 0.16269,5.22361 -0.51983,8.25619 -0.99068,4.40169 -2.41416,7.47116 -4.31866,9.31224 -2.03232,1.96465 -6.27142,3.0767 -9.73823,2.55463 z m 4.05519,-4.88266 c 0.97785,-0.44553 1.67659,-1.95724 2.54111,-5.49757 1.21209,-4.96371 1.49709,-7.17404 1.04672,-8.1178 -0.70763,-1.48281 -2.62504,-1.13226 -3.6349,0.66454 -1.28368,2.284 -2.95005,10.65954 -2.40567,12.09137 0.44582,1.17261 1.19176,1.434 2.45274,0.85946 z m 47.40627,4.59544 c -1.11199,-0.39266 -1.4211,-0.65698 -1.93879,-1.65777 -0.52509,-1.01511 -0.59679,-1.46365 -0.48638,-3.04271 0.15319,-2.19107 0.90786,-4.34634 2.07994,-5.9401 1.08175,-1.47096 2.97313,-2.34125 7.21114,-3.31809 3.56325,-0.82132 4.42283,-1.38904 4.75091,-3.13781 0.54669,-2.91406 -2.99905,-3.44906 -4.60793,-0.69527 l -0.69231,1.18502 -2.52304,0.0753 c -3.33697,0.0995 -3.522,-0.0923 -2.36209,-2.44836 0.99256,-2.01613 2.42837,-3.34177 4.50069,-4.15529 1.23839,-0.48615 2.03031,-0.5824 4.91578,-0.59743 3.09695,-0.0161 3.58134,0.0461 4.86272,0.62464 1.14938,0.51894 1.51728,0.8498 1.91244,1.71979 0.68281,1.50336 0.64095,2.07514 -0.57545,7.86253 -1.81128,8.61774 -2.35061,11.43514 -2.35706,12.31302 -0.004,0.57414 -0.15735,0.89004 -0.48125,0.99284 -0.55801,0.17711 -5.00677,-0.0379 -5.36496,-0.25927 -0.13496,-0.0834 -0.2454,-0.49479 -0.2454,-0.91418 0,-1.07872 -0.33589,-1.15674 -1.18123,-0.27437 -1.65944,1.73207 -5.06619,2.49794 -7.41773,1.66756 z m 7.64252,-5.12072 c 0.38634,-0.30389 0.87963,-0.89521 1.09622,-1.31405 0.50355,-0.97372 1.18327,-4.18752 0.92009,-4.35018 -0.28993,-0.17918 -2.66015,0.65645 -3.47718,1.22588 -0.78259,0.54545 -1.55144,2.22533 -1.55144,3.38984 0,1.54779 1.64822,2.1215 3.01231,1.04851 z m 38.98778,5.20144 c -0.54708,-0.19522 -1.18002,-0.50874 -1.4065,-0.69672 -2.19929,-1.82524 -1.32347,-8.02973 1.51768,-10.7518 1.13861,-1.09088 2.15654,-1.50152 6.11113,-2.46527 4.24606,-1.03478 5.21049,-1.77351 5.21954,-3.99803 0.005,-1.22818 -0.54977,-1.68605 -2.04284,-1.68605 -1.21481,0 -1.66508,0.34752 -3.06589,2.3662 -0.47165,0.67968 -0.53962,0.69352 -3.04271,0.61971 l -2.56029,-0.0755 0.0416,-0.88392 c 0.06,-1.27358 1.67912,-3.72839 3.11409,-4.72131 1.72275,-1.19209 4.52625,-1.77321 7.79092,-1.61495 3.06499,0.14858 4.76919,0.79048 5.59919,2.10895 0.8182,1.29975 0.58949,3.6167 -1.16469,11.79934 -0.81979,3.82398 -1.49051,7.47924 -1.49051,8.12279 0,0.73494 -0.1397,1.24879 -0.37563,1.38168 -0.20661,0.11637 -1.60559,0.15206 -3.10885,0.0793 l -2.73323,-0.1323 -0.0305,-0.79375 c -0.0167,-0.43656 -0.0465,-0.88581 -0.0661,-0.99834 -0.0196,-0.11252 -0.63873,0.27213 -1.37583,0.85478 -2.13426,1.68704 -4.7775,2.25347 -6.93055,1.48518 z m 7.38436,-5.15906 c 0.58119,-0.35439 0.99412,-0.93775 1.36449,-1.92764 0.61684,-1.64871 1.00824,-3.91227 0.6764,-3.91208 -0.50974,2.7e-4 -3.17188,1.13195 -3.629,1.54265 -0.26955,0.24219 -0.64217,0.73828 -0.82801,1.10243 -1.40547,2.7537 0.0289,4.65026 2.41612,3.19464 z m 30.51472,5.19581 c -2.04515,-0.46526 -3.19495,-1.21438 -3.96375,-2.58252 -0.59881,-1.06562 -0.65956,-1.45273 -0.64141,-4.08751 0.0393,-5.71479 2.23557,-12.10539 5.04148,-14.66983 2.16278,-1.97666 3.76195,-2.50363 7.63847,-2.51708 2.94955,-0.0102 3.28155,0.0413 4.67574,0.72598 1.74522,0.85702 2.43758,1.83522 2.84007,4.01245 0.53702,2.90502 -0.74079,9.36708 -2.62462,13.27316 -1.90958,3.95938 -4.77356,5.80833 -9.38911,6.06146 -1.19938,0.0658 -2.74947,-0.0279 -3.57687,-0.21611 z m 5.42194,-5.01639 c 0.85461,-0.74383 1.7348,-3.30786 2.6342,-7.67345 1.05949,-5.1429 0.89021,-6.5479 -0.78891,-6.5479 -1.9508,0 -3.05766,2.04168 -4.22056,7.78502 -0.76372,3.77181 -0.83449,5.60704 -0.24855,6.44361 0.53994,0.77086 1.73361,0.76756 2.62382,-0.007 z m -253.176348,4.48123 c -0.449963,-0.32902 -0.334166,-1.01215 2.186435,-12.89844 1.463857,-6.90306 2.85618,-13.50352 3.094043,-14.66768 0.237865,-1.16417 0.555479,-2.2655 0.70581,-2.4474 0.348689,-0.42192 6.054469,-0.46437 6.470698,-0.0482 0.20039,0.2004 -0.01714,1.72033 -0.747895,5.22553 -1.271178,6.0975 -1.207244,5.6612 -0.848067,5.78738 0.165317,0.0581 1.326105,-1.23926 2.579527,-2.88297 3.727092,-4.88763 4.66785,-6.10497 5.638141,-7.29576 l 0.922549,-1.13221 3.327752,0.0739 c 2.095746,0.0465 3.363045,0.18021 3.423081,0.36109 0.05243,0.15796 -2.17025,3.05755 -4.939294,6.44352 -2.769045,3.38596 -5.034627,6.28895 -5.034627,6.45107 0,0.25748 3.60562,12.28391 4.654381,15.52454 0.351546,1.08627 0.345585,1.2185 -0.06859,1.52135 -0.625314,0.45724 -6.445065,0.45803 -7.010321,0.001 -0.224951,-0.1819 -0.911206,-2.23573 -1.525011,-4.56406 -1.453015,-5.51171 -1.725805,-6.35 -2.066345,-6.35 -0.155787,0 -0.794404,0.5807 -1.419151,1.29045 -1.089181,1.23737 -1.171218,1.45473 -1.994392,5.28394 -0.595144,2.76847 -1.000475,4.09731 -1.321351,4.33194 -0.640564,0.4684 -5.384199,0.46134 -6.027375,-0.009 z m 45.377632,0.11046 c -0.314764,-0.2051 -0.320931,-0.5435 -0.03985,-2.18671 0.182898,-1.06924 0.46954,-2.25978 0.636979,-2.64565 0.167439,-0.38587 2.566622,-3.16551 5.331518,-6.17698 5.83266,-6.35282 5.908225,-6.44608 5.451343,-6.72844 -0.181795,-0.11236 -1.883913,-0.21605 -3.782457,-0.23043 -1.898565,-0.0144 -3.523123,-0.0973 -3.610131,-0.18434 -0.257995,-0.258 0.699778,-4.4338 1.070962,-4.6693 0.187613,-0.11903 3.749585,-0.21825 7.915502,-0.22047 5.742702,-0.003 7.639871,0.0759 7.84524,0.32667 0.187907,0.22945 0.114591,1.04818 -0.239395,2.67348 l -0.510275,2.34275 -5.549027,5.94918 c -3.051995,3.27205 -5.549054,6.11711 -5.549054,6.32235 0,0.30446 0.724853,0.37318 3.936366,0.37318 3.008894,0 4.007167,0.0854 4.236958,0.36224 0.391927,0.47223 -0.338085,4.13659 -0.909691,4.56623 -0.493289,0.37079 -15.678465,0.48887 -16.234987,0.12624 z m 39.936336,-0.0166 c -0.33883,-0.21429 -0.32681,-0.54163 0.0946,-2.57564 0.26551,-1.28158 0.67829,-2.58574 0.91731,-2.89813 0.23903,-0.31239 2.57773,-2.91368 5.19711,-5.78064 5.67288,-6.20907 5.64912,-6.17903 5.1399,-6.5013 -0.20757,-0.13136 -1.95498,-0.24067 -3.88313,-0.2429 -2.86692,-0.003 -3.50573,-0.0732 -3.50573,-0.38362 0,-0.94967 0.84299,-4.25042 1.13252,-4.43437 0.17748,-0.11277 3.73116,-0.20686 7.89707,-0.20909 5.86243,-0.003 7.63834,0.073 7.85739,0.33696 0.20373,0.24549 0.14009,0.99486 -0.22715,2.67545 l -0.51014,2.33444 -2.84933,3.05208 c -7.30541,7.82526 -8.50362,9.16543 -8.37736,9.36975 0.0744,0.12041 1.96672,0.21894 4.20512,0.21894 2.53193,0 4.13407,0.10397 4.23987,0.27514 0.29398,0.47568 -0.47709,4.03188 -0.98417,4.53895 -0.43881,0.4388 -1.10588,0.47725 -8.21663,0.47352 -4.29496,-0.002 -7.91181,-0.1133 -8.12721,-0.24954 z m 42.22509,-0.0881 c -0.39655,-0.29132 -0.1556,-1.63458 2.70849,-15.09977 1.9903,-9.35713 3.2776,-14.86478 3.50853,-15.01106 0.61243,-0.38789 5.67881,-0.29353 6.01541,0.11204 0.21757,0.26217 -0.31276,3.19605 -2.09248,11.57552 -3.67033,17.28113 -3.88557,18.25455 -4.07922,18.44819 -0.33715,0.33716 -5.59734,0.31553 -6.06073,-0.0249 z m 55.33128,0.15931 c -0.25466,-0.0665 -0.46302,-0.24282 -0.46302,-0.39171 0,-0.1489 0.54507,-2.84884 1.21129,-5.99987 0.6662,-3.15104 1.55136,-7.33651 1.96705,-9.30104 0.41566,-1.96453 1.25375,-5.95312 1.86245,-8.86354 0.60868,-2.91041 1.22637,-5.44049 1.37263,-5.62239 0.18302,-0.2276 1.15332,-0.33073 3.11158,-0.33073 1.95493,0 2.93085,0.10352 3.11785,0.33073 0.19029,0.23117 0.0822,1.20683 -0.35904,3.24114 -0.34718,1.60073 -1.75646,8.2042 -3.13171,14.67438 -1.8982,8.93049 -2.61268,11.84602 -2.96643,12.10468 -0.45,0.32905 -4.62714,0.44464 -5.72265,0.15835 z m 13.62403,-0.21292 c -1.80358,-0.78386 -1.79599,-2.01689 0.0669,-10.84949 0.79798,-3.78354 1.45214,-6.96846 1.45367,-7.0776 0.003,-0.10914 -0.39119,-0.19844 -0.8727,-0.19844 -0.48149,0 -1.08093,-0.15024 -1.33205,-0.33386 -0.4214,-0.30813 -0.42722,-0.47399 -0.0755,-2.15178 0.20958,-0.99986 0.5411,-1.91936 0.73674,-2.04334 0.19563,-0.12398 0.85367,-0.22724 1.46232,-0.22947 1.26214,-0.005 1.12437,0.24951 1.9326,-3.56424 0.30702,-1.44877 0.68611,-2.78823 0.8424,-2.97656 0.20074,-0.24187 1.13168,-0.34242 3.17051,-0.34242 2.36691,0 2.91475,0.074 3.04421,0.41142 0.0868,0.22628 -0.0973,1.66353 -0.40912,3.19388 -0.31187,1.53035 -0.49869,2.89303 -0.41516,3.02816 0.0835,0.13514 0.68434,0.24571 1.33517,0.24571 0.79282,0 1.23219,0.12735 1.33141,0.38591 0.14964,0.39001 -0.52182,3.76355 -0.80558,4.04732 -0.0844,0.0844 -0.80756,0.20773 -1.60697,0.27403 -1.41354,0.11722 -1.46056,0.14692 -1.70979,1.08007 -0.50684,1.89767 -2.39025,11.02622 -2.39131,11.59013 -0.003,0.79875 0.68638,1.40796 1.58972,1.40796 0.4176,0 0.83204,0.11779 0.92102,0.26176 0.20354,0.32936 -0.38182,3.46082 -0.73004,3.90542 -0.37896,0.48382 -6.39524,0.43228 -7.53846,-0.0646 z m 35.18959,0 c -1.79959,-0.78211 -1.79245,-1.90719 0.0682,-10.74096 0.80037,-3.79999 1.45521,-7.01606 1.45521,-7.14682 0,-0.13076 -0.39396,-0.23775 -0.87548,-0.23775 -0.48149,0 -1.08526,-0.1534 -1.34167,-0.3409 -0.43932,-0.32124 -0.4417,-0.44652 -0.0413,-2.1729 0.23368,-1.00761 0.56954,-1.92394 0.74636,-2.0363 0.17682,-0.11236 0.8195,-0.20612 1.42814,-0.20835 1.26725,-0.005 1.14123,0.22612 1.95303,-3.57592 0.3107,-1.45521 0.6867,-2.79467 0.83555,-2.97657 0.18643,-0.22783 1.16861,-0.33073 3.15693,-0.33073 2.45131,0 2.91187,0.0665 3.05575,0.44154 0.0932,0.24284 -0.0886,1.68377 -0.40407,3.20206 -0.31541,1.51828 -0.50744,2.8674 -0.42669,2.99804 0.0807,0.13064 0.66852,0.23753 1.30619,0.23753 0.63767,0 1.23793,0.12706 1.3339,0.28236 0.28173,0.45582 -0.42921,3.78822 -0.88519,4.14941 -0.22966,0.1819 -0.98452,0.33073 -1.67746,0.33073 -1.5077,0 -1.28918,-0.55571 -2.93053,7.45312 -1.10143,5.37438 -1.11217,5.47824 -0.62256,6.01927 0.27755,0.30669 0.82471,0.55053 1.23537,0.55053 0.40542,0 0.81759,0.13019 0.91593,0.28932 0.21206,0.34313 -0.37859,3.4022 -0.74874,3.87786 -0.37656,0.48386 -6.3935,0.43231 -7.53679,-0.0646 z m -58.96298,-25.91101 c -0.0796,-0.20744 0.49056,-1.48736 1.26701,-2.84427 l 1.41174,-2.46712 2.97463,-0.0748 c 2.28626,-0.0575 2.97254,0.004 2.96566,0.26459 -0.005,0.18666 -1.11694,1.50025 -2.47108,2.91908 l -2.46208,2.57969 h -1.77059 c -1.2886,0 -1.80996,-0.10267 -1.91529,-0.37715 z m 81.52109,0.11317 c -0.0897,-0.14518 0.50527,-1.45487 1.3222,-2.91041 l 1.48535,-2.64644 h 2.89552 c 2.22125,0 2.89552,0.0813 2.89552,0.34909 0,0.192 -1.08175,1.50168 -2.4039,2.91042 l -2.40387,2.56132 h -1.81385 c -0.99759,0 -1.88722,-0.11879 -1.97697,-0.26397 z M 48.353534,115.28701 c -0.202827,-0.20282 -0.152448,-0.87642 0.175633,-2.34821 0.253026,-1.1351 0.542819,-2.19773 0.643985,-2.36142 0.223369,-0.36142 4.549436,-0.41082 4.769676,-0.0545 0.236431,0.38256 -0.821106,4.5631 -1.217928,4.81459 -0.515077,0.32643 -4.035105,0.28577 -4.371366,-0.0505 z m 7.615208,-0.0784 c -0.274762,-0.33107 0.01656,-2.29244 0.663329,-4.46587 0.117626,-0.39528 0.477105,-0.46302 2.457106,-0.46302 1.275628,0 2.385087,0.0658 2.465464,0.14614 0.225706,0.2257 -0.715584,4.26584 -1.102494,4.73204 -0.456513,0.55006 -4.035383,0.59054 -4.483405,0.0507 z m -6.81356,-14.478 c -2.370659,-0.56339 -3.279164,-2.444649 -2.773866,-5.743916 0.347636,-2.269855 1.322237,-4.475215 2.496746,-5.649724 1.108708,-1.108705 2.527205,-1.707801 6.150679,-2.597706 3.74478,-0.919697 4.628364,-1.409671 5.130197,-2.844853 1.090208,-3.117853 -2.763158,-4.089895 -4.484942,-1.131356 l -0.692909,1.190625 -2.457386,0.07643 c -3.053342,0.09496 -3.348168,-0.0793 -2.742028,-1.620769 0.930097,-2.365322 2.120286,-3.717446 4.174397,-4.742362 2.292866,-1.144043 8.179081,-1.286362 10.51251,-0.254175 1.439452,0.636738 2.319782,2.055564 2.319782,3.738785 0,0.580496 -0.707787,4.425005 -1.572858,8.543353 -0.865071,4.118348 -1.630939,8.124791 -1.701932,8.903206 -0.07099,0.778414 -0.204336,1.490562 -0.296323,1.582552 -0.186063,0.18606 -5.432936,0.071 -5.751912,-0.12613 -0.111086,-0.06866 -0.201975,-0.455144 -0.201975,-0.858864 0,-1.125857 -0.255712,-1.156403 -1.356366,-0.16203 -1.778711,1.606954 -4.379706,2.260664 -6.751814,1.696934 z m 7.039308,-5.17113 c 0.40291,-0.238006 0.926116,-0.760394 1.16268,-1.160865 0.442492,-0.74908 1.332124,-4.476996 1.119203,-4.689916 -0.160785,-0.160785 -1.905161,0.416689 -3.151127,1.043178 -1.651878,0.830587 -2.529305,3.35231 -1.618757,4.652301 0.491482,0.701688 1.460632,0.762182 2.488001,0.155302 z m 25.971693,5.2091 c -2.311082,-0.58312 -3.06324,-1.665969 -3.042814,-4.380523 0.02993,-3.98005 2.046843,-7.472428 4.940247,-8.55432 0.75782,-0.283364 2.664222,-0.825069 4.236429,-1.203788 1.572207,-0.37872 3.096631,-0.815989 3.387593,-0.971709 1.141862,-0.6111 1.962864,-2.939772 1.356572,-3.847769 -0.387456,-0.580253 -1.451266,-0.945968 -2.292562,-0.788136 -0.857197,0.160809 -1.787155,0.989256 -2.622233,2.336028 -0.440928,0.711102 -0.508238,0.727604 -2.966905,0.727604 -2.851917,0 -3.061123,-0.15027 -2.514018,-1.80561 1.276562,-3.862207 5.030021,-5.802058 10.735522,-5.548307 3.269139,0.145394 4.908074,0.811091 5.71844,2.322706 0.829124,1.546582 0.735753,2.368452 -1.368028,12.042669 -0.601266,2.764896 -1.172369,5.920052 -1.269127,7.011458 l -0.175895,1.984377 -2.645834,0.16254 c -3.115045,0.19137 -3.571875,0.034 -3.571875,-1.230183 0,-1.096579 -0.18415,-1.132708 -1.058333,-0.20764 -1.433407,1.516833 -4.783693,2.471253 -6.847179,1.950603 z m 6.968967,-5.299032 c 0.988298,-0.610812 1.308549,-1.230767 1.856687,-3.594314 0.53385,-2.301912 0.530833,-2.321637 -0.324829,-2.112796 -1.642692,0.400931 -3.476228,1.436526 -3.861091,2.180773 -1.506617,2.913454 -0.107183,5.032121 2.329233,3.526337 z m -64.349393,4.850642 c -0.452257,-0.18971 -0.408352,-1.204638 0.147966,-3.420407 0.406387,-1.6186 0.806715,-2.324984 2.972038,-5.244177 1.376315,-1.855489 3.276298,-4.423484 4.222184,-5.706655 0.945885,-1.283174 2.999713,-4.061704 4.564062,-6.174515 1.564349,-2.112812 2.844271,-3.971579 2.844271,-4.130596 0,-0.197443 -1.386909,-0.289118 -4.373927,-0.289118 -3.56666,0 -4.400966,-0.07045 -4.520409,-0.381714 -0.188717,-0.491792 0.606613,-4.355668 0.99219,-4.820259 0.438401,-0.52824 16.69641,-0.519082 17.135221,0.0097 0.228872,0.275776 0.182459,0.877451 -0.191619,2.483969 l -0.493649,2.12004 -7.189862,9.703163 c -3.954425,5.336738 -7.120811,9.814891 -7.036414,9.951447 0.08603,0.139195 2.166771,0.248285 4.735645,0.248285 3.509947,0 4.651137,0.08307 4.876805,0.354984 0.219033,0.263916 0.164902,0.948536 -0.211015,2.668759 -0.278093,1.272577 -0.58446,2.392764 -0.68081,2.489294 -0.207278,0.20766 -17.310354,0.34017 -17.792677,0.13785 z m 43.513209,-0.14717 c -0.451953,-0.336709 -0.437232,-0.523333 0.319693,-4.052816 0.436415,-2.034921 1.460855,-6.855013 2.276565,-10.711315 2.76024,-13.049453 3.06197,-14.418756 3.308562,-15.015105 0.233971,-0.56589 0.388673,-0.595312 3.129836,-0.595312 2.037662,0 2.967117,0.100527 3.168068,0.342646 0.207989,0.250614 -0.248497,2.862246 -1.699578,9.723438 -3.383809,16.000007 -4.295378,20.139124 -4.474898,20.319294 -0.09533,0.0957 -1.384115,0.21183 -2.863903,0.25807 -1.940771,0.0606 -2.822601,-0.0143 -3.164345,-0.2689 z M 101.06,100.13113 c -0.36714,-0.269178 -0.2386,-1.11648 1.16986,-7.710743 0.87026,-4.074583 1.89669,-8.896615 2.28089,-10.715625 0.98068,-4.642718 0.84587,-4.497917 4.18777,-4.497917 1.99242,0 2.82141,0.09853 3.03945,0.361262 0.22797,0.274675 0.0167,1.685666 -0.88198,5.88698 -0.64998,3.039144 -1.70966,8.002942 -2.35482,11.030661 -0.64519,3.02772 -1.23108,5.562972 -1.30199,5.633892 -0.29432,0.29432 -5.73953,0.30451 -6.13918,0.0115 z m 5.24806,-25.964109 c -0.25701,-0.66979 0.68604,-4.345675 1.17811,-4.59206 0.44511,-0.222864 5.84372,-0.154374 6.07515,0.07707 0.21395,0.21394 -0.51506,3.692998 -0.90389,4.313665 -0.35002,0.558724 -0.55195,0.595313 -3.28554,0.595313 -2.33546,0 -2.94259,-0.07808 -3.06383,-0.393991 z"
           id="path167" />
        <path
           style="fill:#2a2a2a;stroke-width:0.26458332"
           d="m -61.666847,201.11632 c -7.567084,-0.0464 -13.936928,-0.1574 -14.155209,-0.2467 -0.477422,-0.19531 1.092756,-0.84484 2.117622,-0.87598 0.364329,-0.0111 1.85261,-0.44831 3.307292,-0.97165 1.454684,-0.52333 3.004867,-1.0405 3.444854,-1.14925 0.439983,-0.10874 1.035296,-0.32181 1.322916,-0.47348 0.934604,-0.49282 8.705197,-0.58397 64.4198167,-0.75556 90.8258233,-0.27974 198.5005553,0.53216 234.2885453,1.7666 12.69801,0.43799 11.64375,0.82095 -3.57188,1.29749 -9.97913,0.31253 -32.26818,0.72053 -59.39896,1.08729 -19.1607,0.25901 -200.843779,0.51082 -231.774997,0.32124 z m 137.028767,-11.66 c 0.0784,-0.25466 0.687732,-3.08239 1.354058,-6.28385 0.666353,-3.20146 2.018454,-9.63083 3.004688,-14.2875 l 1.793134,-8.46667 2.691448,-0.0754 2.691447,-0.0754 v 1.06759 c 0,1.3936 0.471223,1.39646 2.043616,0.0124 1.643062,-1.44628 3.504062,-1.89662 5.876713,-1.42209 2.922455,0.58449 3.599868,4.53609 2.020332,11.7856 -1.646396,7.55643 -3.650298,10.5485 -7.493265,11.18845 -2.020385,0.33645 -3.241701,-0.0458 -4.512733,-1.41242 l -1.139296,-1.22496 -0.462439,0.56049 c -0.276145,0.33473 -0.817774,2.27975 -1.344639,4.82865 l -0.8822,4.26816 h -2.891711 c -2.631916,0 -2.878904,-0.0416 -2.749153,-0.46303 z m 12.597104,-11.24479 c 1.157023,-0.78627 1.729184,-1.96092 2.524257,-5.18227 1.599856,-6.48207 1.298655,-9.03908 -1.064736,-9.03908 -2.041419,0 -3.123883,1.99444 -4.370335,8.05224 -0.746045,3.62595 -0.714428,5.2839 0.116655,6.11499 0.807747,0.80773 1.660895,0.82426 2.794159,0.0541 z m -49.952104,4.5651 c -1.817621,-0.38641 -3.169459,-1.28991 -3.762285,-2.51453 -1.26801,-2.61936 -0.147918,-10.40525 2.161228,-15.02298 1.08176,-2.16325 2.387137,-3.49161 4.409887,-4.48753 1.694662,-0.83437 1.859569,-0.86245 5.064758,-0.86245 3.96028,0 5.331746,0.45976 6.366674,2.13431 1.318755,2.13378 0.836133,8.166 -1.071549,13.39317 -1.431028,3.92111 -3.014171,5.7081 -6.070444,6.85207 -1.669511,0.62491 -5.31948,0.88609 -7.098269,0.50794 z m 5.558013,-4.15629 c 1.063762,-0.96269 1.620625,-2.51447 2.708658,-7.54806 0.841116,-3.89129 0.890043,-6.33391 0.141854,-7.0821 -0.707853,-0.70785 -2.110274,-0.68618 -3.042378,0.047 -0.402867,0.31689 -1.003662,1.18934 -1.335095,1.93877 -0.982819,2.22233 -2.053913,7.37417 -2.080887,10.00884 -0.02233,2.18201 0.0196,2.37267 0.631415,2.86915 0.772385,0.62679 2.144712,0.51909 2.976433,-0.23361 z m 76.226457,4.16145 c -4.41502,-0.94469 -5.2569,-4.28247 -3.20485,-12.70619 1.78676,-7.3347 5.07461,-10.3325 11.31002,-10.31229 3.56891,0.0116 5.52698,0.82373 6.55587,2.71919 1.11077,2.04633 0.17809,9.31583 -1.80981,14.10573 -1.12434,2.70916 -3.09517,4.77426 -5.36778,5.62456 -1.75726,0.65747 -5.67706,0.95551 -7.48345,0.569 z m 5.21584,-3.84811 c 0.42791,-0.22128 1.02057,-0.87778 1.31704,-1.45889 0.99663,-1.95355 2.64118,-9.19599 2.64118,-11.6315 0,-2.82206 -3.10428,-3.29017 -4.62384,-0.69726 -1.42316,2.42846 -3.04778,10.64215 -2.50422,12.66079 0.3933,1.46061 1.65626,1.90958 3.16984,1.12686 z m 39.17688,3.55581 c -1.66775,-0.32754 -2.14575,-0.85899 -2.14575,-2.38571 0,-0.69679 0.65575,-4.44528 1.45722,-8.32999 1.07085,-5.1905 1.38118,-7.15471 1.17049,-7.40859 -0.15772,-0.19001 -0.72416,-0.38189 -1.25878,-0.4264 -0.90681,-0.0755 -0.96666,-0.13419 -0.89175,-0.87466 0.0442,-0.43657 0.19756,-1.24024 0.34091,-1.78594 0.25176,-0.95835 0.3007,-0.99219 1.43497,-0.99219 1.50966,0 1.72651,-0.34823 2.51264,-4.03489 l 0.60648,-2.84427 h 2.69378 c 1.48156,0 2.75524,0.0615 2.83035,0.13658 0.0751,0.0751 -0.14065,1.35504 -0.47948,2.84427 -0.33885,1.48923 -0.61859,2.78848 -0.62166,2.88723 -0.0153,0.49739 0.93226,1.01108 1.86539,1.01108 1.19002,0 1.23254,0.13904 0.68752,2.24896 l -0.34174,1.32292 -1.37599,0.0801 c -1.71151,0.0996 -1.95818,0.43608 -2.55987,3.49179 -0.24355,1.23693 -0.78983,3.82566 -1.21393,5.75274 -0.42413,1.92708 -0.77113,3.7482 -0.77113,4.04693 0,0.76242 1.16546,1.842 1.98855,1.842 0.67199,0 0.68504,0.0323 0.5074,1.25677 -0.10028,0.69122 -0.28118,1.44795 -0.40199,1.68162 -0.35816,0.69281 -3.62574,0.95258 -6.03363,0.47967 z m 62.48826,0.038 c -0.61323,-0.10002 -1.37158,-0.41253 -1.68521,-0.69449 -0.51639,-0.46421 -0.55666,-0.70011 -0.42638,-2.49702 0.0791,-1.0914 0.75168,-4.82545 1.49458,-8.29787 1.04029,-4.86266 1.28063,-6.39789 1.0459,-6.68073 -0.22556,-0.27179 -1.04781,-0.36723 -3.16389,-0.36723 -3.35619,0 -3.51189,0.0911 -3.95907,2.31528 -0.39312,1.95543 -3.11742,14.82653 -3.30409,15.61024 -0.13583,0.57048 -0.25746,0.59531 -2.91486,0.59531 -2.05242,0 -2.77307,-0.0865 -2.77307,-0.33306 0,-0.18319 0.51991,-2.77279 1.15538,-5.75469 1.97033,-9.24592 2.38869,-11.5146 2.20943,-11.98171 -0.12361,-0.32215 -0.47855,-0.45137 -1.23984,-0.45137 -1.20504,0 -1.20713,-0.006 -0.76551,-2.20483 l 0.30109,-1.49934 h 1.1352 c 1.45756,0 1.79456,-0.36437 2.33804,-2.528 0.83793,-3.33579 1.7826,-4.51316 4.12906,-5.14616 1.27992,-0.34528 5.39208,-0.50667 5.67994,-0.22291 0.0964,0.095 0.0363,0.87885 -0.13351,1.74191 l -0.30871,1.5692 -1.33998,0.24246 c -1.5358,0.2779 -2.23195,0.99514 -2.48613,2.56153 -0.26033,1.60424 0.0737,1.78197 3.34846,1.78197 2.18244,0 2.92094,-0.0908 3.1688,-0.38942 0.25467,-0.30683 1.54239,-5.42089 1.58417,-6.29131 0.005,-0.10914 1.25968,-0.19843 2.78765,-0.19843 3.23384,0 3.04895,-0.27229 2.25467,3.32069 -0.28789,1.30232 -0.52601,2.44864 -0.52916,2.54739 -0.0159,0.49725 0.93207,1.01108 1.86526,1.01108 1.16816,0 1.16969,0.005 0.67868,2.11667 l -0.33835,1.45521 -1.37327,0.0801 c -1.0737,0.0626 -1.45375,0.20689 -1.74225,0.66145 -0.20294,0.31976 -0.81359,2.66498 -1.357,5.21159 -1.40131,6.56702 -1.49944,7.14726 -1.32582,7.83899 0.15758,0.62786 1.35339,1.42143 2.14193,1.42143 0.36296,0 0.40264,0.18253 0.24461,1.12448 -0.3475,2.07085 -0.47265,2.21998 -2.01912,2.40569 -1.64848,0.19796 -2.83244,0.17793 -4.37763,-0.0741 z M 7.7001853,182.32118 c -0.071083,-0.11502 1.089578,-5.92365 2.5792427,-12.90808 1.489668,-6.98443 2.883379,-13.5324 3.097139,-14.55105 l 0.388652,-1.85208 3.605156,-0.0735 3.60516,-0.0735 0.156869,1.3964 c 0.08628,0.76802 0.3923,4.31343 0.680045,7.8787 0.665515,8.24587 0.755446,8.92298 1.250942,9.41848 0.661591,0.66159 1.104419,-0.0574 1.663195,-2.70047 1.941415,-9.18301 3.216648,-15.12021 3.332517,-15.51541 0.117634,-0.40123 0.4904,-0.46302 2.793201,-0.46302 h 2.657449 l -0.174805,0.99219 c -0.324496,1.8418 -4.910077,23.40178 -5.669616,26.65677 l -0.432179,1.85208 -3.285561,0.0747 c -1.807059,0.041 -3.390702,-0.0305 -3.519202,-0.159 -0.1285,-0.1285 -0.591458,-4.50787 -1.028795,-9.73193 -0.437335,-5.22407 -0.85026,-9.76619 -0.91761,-10.09362 -0.14805,-0.71974 -1.044731,-0.80515 -1.38898,-0.13229 -0.130292,0.25466 -0.809448,3.20146 -1.509239,6.54844 -0.699789,3.34698 -1.640708,7.75229 -2.090933,9.78958 l -0.818589,3.70417 -2.422409,0.0758 c -1.3323227,0.0417 -2.4805667,-0.0183 -2.5516497,-0.13333 z m 46.9173427,-0.35846 c 0,-0.30157 0.353518,-2.1768 0.785593,-4.16719 0.432075,-1.99039 1.390608,-6.47639 2.130068,-9.96889 0.739463,-3.4925 1.410885,-6.61789 1.492049,-6.94532 0.140552,-0.56698 0.271346,-0.59531 2.748751,-0.59531 h 2.60118 l 0.08212,0.98999 c 0.101748,1.22664 0.697682,1.4131 1.607738,0.50305 1.378638,-1.37864 2.788279,-1.88331 5.270018,-1.88674 2.176939,-0.003 2.339843,0.0372 3.098589,0.7641 1.519343,1.45561 1.501775,1.66039 -1.251083,14.57856 l -1.522333,7.14375 -2.611041,0.0762 c -1.436065,0.0419 -2.706645,-0.0194 -2.823501,-0.13622 -0.116858,-0.11686 0.0271,-1.34179 0.319898,-2.72208 2.945722,-13.88639 2.987341,-14.18484 2.101596,-15.07058 -0.820389,-0.8204 -1.671059,-0.90702 -2.875103,-0.29276 -1.803318,0.91998 -2.213084,1.9665 -3.893296,9.94332 -0.827606,3.92906 -1.606381,7.41164 -1.730608,7.73906 -0.213514,0.56275 -0.370943,0.59531 -2.878249,0.59531 -2.506837,0 -2.652382,-0.0301 -2.652382,-0.54829 z m 44.866005,0.31466 c -0.08554,-0.13842 0.1973,-1.89865 0.628547,-3.91162 2.09124,-9.76143 3.44657,-16.18812 3.60362,-17.08756 l 0.17322,-0.99219 h 2.72537 2.72537 l -0.0428,1.24749 c -0.0567,1.65177 0.60661,1.85446 1.70561,0.52118 0.42035,-0.50994 1.38314,-1.23557 2.13956,-1.6125 1.46084,-0.72797 3.12621,-0.91728 3.11954,-0.35461 -0.003,0.28402 -0.19616,1.19164 -0.92736,4.36563 -0.12351,0.53615 -0.29523,0.59531 -1.7281,0.59531 -2.5698,0 -4.27303,0.95581 -5.3113,2.98059 -0.28096,0.54792 -1.14216,4.00073 -1.91379,7.67292 l -1.40292,6.6767 -2.66949,0.0752 c -1.49162,0.042 -2.738121,-0.0359 -2.825037,-0.17651 z m 37.875897,0.0352 c -0.0571,-0.10914 0.33359,-2.2225 0.86828,-4.69635 2.24531,-10.38816 2.7128,-12.80048 2.55863,-13.20227 -0.11136,-0.29023 -0.49382,-0.42377 -1.21364,-0.42377 -0.57806,0 -1.10043,-0.0893 -1.16084,-0.19844 -0.0604,-0.10914 0.0599,-0.94258 0.26726,-1.85208 l 0.37706,-1.65365 h 1.13133 c 1.41528,0 1.85142,-0.46184 2.24867,-2.38125 0.48246,-2.33119 1.44131,-4.0408 2.64612,-4.71794 1.18631,-0.66674 5.09548,-1.25249 6.54458,-0.98064 0.88127,0.16533 0.90045,0.19582 0.72239,1.14827 -0.41386,2.21367 -0.45916,2.28018 -1.69561,2.49127 -1.57403,0.2687 -2.39411,1.13477 -2.57241,2.71672 -0.16391,1.45426 0.0791,1.71341 1.61266,1.71952 l 1.01703,0.004 -0.18759,1.38906 c -0.28051,2.07715 -0.45188,2.2756 -2.04462,2.36749 -1.17885,0.068 -1.43102,0.17833 -1.69481,0.74137 -0.28057,0.5988 -0.9184,3.50199 -2.89843,13.19286 -1.00788,4.93278 -0.67514,4.53422 -3.78537,4.53422 -1.45024,0 -2.68354,-0.0893 -2.74069,-0.19844 z m 12.12374,-0.0459 c -0.12412,-0.20083 3.58214,-18.37602 4.29342,-21.05465 l 0.21077,-0.79375 2.84218,-0.0752 c 2.8408,-0.0751 2.84212,-0.0749 2.7015,0.52917 -0.22754,0.97735 -1.39253,6.45934 -2.93981,13.8335 -0.79386,3.78355 -1.50839,7.08753 -1.58785,7.34219 -0.12475,0.39996 -0.50025,0.46302 -2.75682,0.46302 -1.4368,0 -2.68034,-0.10994 -2.76339,-0.24431 z m 36.10377,-0.0864 c 0,-0.1819 1.36901,-6.7601 3.04144,-14.61823 1.67243,-7.85812 3.04136,-14.37679 3.04205,-14.48593 0,-0.10914 1.31095,-0.19844 2.91168,-0.19844 2.67894,0 2.91042,0.0398 2.91042,0.50072 0,0.2754 -0.41672,2.44821 -0.92604,4.82847 -1.07278,5.01347 -1.14911,6.04789 -0.44638,6.04789 0.56594,0 1.29207,-0.74881 3.33544,-3.43958 0.82881,-1.09141 2.52415,-3.32383 3.76746,-4.96094 l 2.26052,-2.97656 h 3.01596 c 1.65878,0 3.01596,0.10321 3.01596,0.22936 0,0.2465 -1.11398,1.65361 -5.70693,7.20858 -4.45979,5.39392 -4.19087,4.91825 -3.73666,6.60963 0.21129,0.78681 0.80819,2.79977 1.32646,4.47326 2.72902,8.81221 3.28843,10.73286 3.17884,10.91406 -0.066,0.10915 -1.53755,0.19844 -3.27009,0.19844 -2.73318,0 -3.18154,-0.0613 -3.38768,-0.46302 -0.13067,-0.25466 -0.62902,-1.9513 -1.10738,-3.77031 -1.4782,-5.62076 -1.89887,-6.91505 -2.29717,-7.06789 -0.43392,-0.16651 -2.57363,1.78751 -3.10391,2.83456 -0.18425,0.3638 -0.67196,2.2688 -1.08378,4.23333 -0.41185,1.96453 -0.86143,3.7207 -0.99912,3.9026 -0.17198,0.22726 -1.10932,0.33073 -2.99601,0.33073 -2.02057,0 -2.74556,-0.0873 -2.74508,-0.33073 z m -30.68111,-26.19375 c 0.006,-0.32742 0.16399,-1.25015 0.35073,-2.05052 l 0.33952,-1.45521 h 2.75812 2.75812 l -0.068,0.66146 c -0.0374,0.3638 -0.19465,1.28654 -0.34949,2.05052 l -0.28152,1.38907 h -2.75936 c -2.68851,0 -2.75908,-0.0153 -2.74815,-0.59532 z m 3.77907,-7.07928 c -2.81866,-0.41225 -4.29961,-1.66328 -4.39618,-3.71363 l -0.0556,-1.17948 2.69129,-0.0752 c 2.51272,-0.0702 2.70267,-0.0393 2.86303,0.46593 0.0944,0.2976 0.51456,0.71838 0.93358,0.93507 1.75663,0.90838 3.81927,0.13137 4.94499,-1.86281 0.66987,-1.18669 1.53249,-4.68766 1.30262,-5.28673 -0.23709,-0.61785 -0.89456,-0.46459 -1.65155,0.38499 -1.55245,1.74238 -5.2315,2.51249 -7.18267,1.5035 -1.47881,-0.76473 -1.78589,-1.70876 -1.77512,-5.45748 0.0143,-4.94673 1.30355,-9.70657 3.59876,-13.2852 2.02652,-3.15972 7.61264,-3.89825 9.20255,-1.21666 1.11003,1.87221 1.62573,1.85274 2.14646,-0.081 l 0.27667,-1.02751 h 2.50333 c 1.82549,0 2.50378,0.0896 2.50486,0.33073 0.003,0.29554 -1.78697,8.85745 -3.99277,19.11615 -1.031,4.79497 -1.64449,6.3167 -3.15807,7.83344 -2.21175,2.2164 -6.44644,3.24627 -10.75621,2.61592 z m 7.57272,-13.21342 c 0.80166,-0.80166 1.28871,-1.91307 2.00329,-4.57138 0.72517,-2.69766 1.08532,-5.60071 0.82399,-6.64191 -0.36287,-1.44575 -1.7608,-1.92176 -3.30247,-1.12453 -1.31786,0.68148 -2.82226,4.9088 -3.35002,9.41334 -0.17344,1.4802 0.14258,2.8474 0.74699,3.23171 0.64712,0.41148 2.54937,0.22163 3.07822,-0.30723 z m -120.768217,5.71926 c -2.468896,-0.64078 -3.338732,-1.50793 -3.884549,-3.87254 -0.517038,-2.23992 0.388911,-7.96679 1.894716,-11.97727 1.922589,-5.12054 5.638382,-7.38233 11.524726,-7.0151 5.897266,0.36792 7.112635,3.72762 4.741942,13.10837 -1.26043,4.98748 -3.50003,8.13084 -6.62655,9.30062 -1.900254,0.71098 -5.77732,0.94203 -7.650285,0.45592 z m 6.12769,-4.25619 c 0.788519,-0.90712 1.499692,-2.91932 2.312278,-6.54237 1.431346,-6.38191 1.205188,-8.42852 -0.931381,-8.42852 -2.138077,0 -3.171386,1.525 -4.305086,6.35362 -1.387824,5.91097 -1.41215,8.70163 -0.08077,9.26601 0.92524,0.39221 2.371519,0.08 3.004958,-0.64874 z m 34.858042,4.33558 c -3.03403,-0.60152 -4.073737,-1.72184 -4.075377,-4.39126 0,-1.06958 0.125333,-1.72608 0.370257,-1.92934 0.235427,-0.1954 1.179063,-0.27984 2.579688,-0.23084 l 2.208451,0.0773 0.14851,1.29328 c 0.188542,1.64194 0.897493,2.2786 2.537354,2.2786 1.962759,0 3.531844,-1.55797 3.531844,-3.50683 0,-1.21895 -1.226873,-2.33402 -3.571875,-3.24641 -4.694687,-1.82658 -5.571781,-2.75772 -5.361834,-5.6922 0.243072,-3.3971 1.899364,-5.70909 4.964959,-6.93052 1.218247,-0.48538 1.993768,-0.58145 4.7625,-0.58994 2.898616,-0.009 3.455114,0.0627 4.503685,0.57955 1.748633,0.86187 2.322723,2.0975 2.158443,4.64576 l -0.0475,0.73753 -2.4474,-0.0761 c -2.39014,-0.0743 -2.449195,-0.0916 -2.524549,-0.73754 -0.133614,-1.14556 -0.635926,-1.82808 -1.572974,-2.13733 -1.838722,-0.60683 -4.302998,1.09382 -4.302998,2.96959 0,1.38669 1.187291,2.27504 4.497916,3.36543 3.006196,0.99011 4.052835,1.89862 4.506939,3.91214 0.445109,1.97356 -0.673682,5.44726 -2.267902,7.04149 -2.260706,2.2607 -6.709675,3.33857 -10.598097,2.56765 z m 40.669505,0.005 c -3.16831,-0.67048 -4.3524,-2.28306 -4.32359,-5.88819 0.0209,-2.62293 1.11819,-8.0045 2.10492,-10.324 1.36017,-3.19732 2.74688,-4.7683 5.2301,-5.92515 1.47005,-0.68485 1.83221,-0.7398 4.89479,-0.74257 2.92881,-0.003 3.44998,0.0673 4.55409,0.61109 1.76003,0.86688 2.38734,1.99248 2.53534,4.54937 0.23837,4.11738 -1.47841,10.88779 -3.52012,13.88221 -1.12824,1.65472 -3.03125,3.05247 -4.8886,3.59066 -1.33879,0.38794 -5.23055,0.53362 -6.58693,0.24658 z m 5.58593,-4.15232 c 1.07122,-0.96873 1.80999,-3.07608 2.84319,-8.11023 0.71287,-3.47329 0.71511,-5.81047 0.006,-6.51931 -1.17742,-1.17742 -3.21681,-0.40508 -4.24328,1.607 -0.81288,1.59335 -2.11707,7.25595 -2.29008,9.94318 -0.15293,2.37514 -0.14203,2.43598 0.56232,3.14032 0.59846,0.59848 0.8749,0.69284 1.65767,0.56581 0.51668,-0.0838 1.17544,-0.36589 1.46391,-0.62677 z m 46.99627,4.12433 c -0.53054,-0.14991 -1.24491,-0.57128 -1.5875,-0.93637 -0.56298,-0.6 -0.62169,-0.89729 -0.61063,-3.09329 0.0109,-2.15116 0.10554,-2.62604 0.82677,-4.14508 1.36784,-2.88094 2.35508,-3.55674 6.7573,-4.62567 4.96533,-1.20566 5.71847,-1.64773 6.29097,-3.69252 0.41961,-1.49869 -0.10768,-2.61108 -1.44724,-3.05317 -1.62229,-0.53541 -3.67909,0.61897 -4.23749,2.3783 -0.15298,0.48202 -0.39851,0.53059 -2.68195,0.53059 -2.87742,0 -2.83242,0.0771 -1.45574,-2.49313 1.45672,-2.71965 3.8612,-3.72544 8.89974,-3.72271 3.08002,0.002 3.55923,0.0655 4.58407,0.6109 1.25423,0.66743 1.89822,1.78638 1.89822,3.29819 0,0.48688 -0.70897,4.27094 -1.57549,8.40902 -0.86653,4.13808 -1.65634,8.15311 -1.75514,8.9223 l -0.17962,1.39852 -2.41207,-0.0756 -2.41205,-0.0756 -0.0814,-0.84019 c -0.13592,-1.40223 -0.6862,-1.60267 -1.77509,-0.64662 -1.99305,1.74993 -4.79793,2.48727 -7.04562,1.85214 z m 7.60381,-4.32586 c 0.34655,-0.22706 0.85601,-0.85758 1.13213,-1.40115 0.65981,-1.29886 1.39827,-4.87753 1.07463,-5.20779 -0.30814,-0.31445 -3.59127,0.73221 -4.38134,1.39677 -0.89419,0.75213 -1.51022,2.18799 -1.53305,3.57336 -0.0175,1.05702 0.093,1.37226 0.63423,1.81081 0.74197,0.60118 2.00091,0.53072 3.0734,-0.172 z m 38.31402,4.13473 c -1.114,-0.52319 -1.32802,-0.82575 -1.71394,-2.42316 -0.34049,-1.40951 0.21262,-4.39637 1.13818,-6.14602 1.30072,-2.45888 2.49404,-3.15097 7.40005,-4.29184 3.49621,-0.81303 4.59079,-1.38048 5.12387,-2.65631 0.95965,-2.29675 0.0294,-3.99348 -2.16336,-3.94586 -1.2785,0.0278 -2.42525,0.85478 -3.17466,2.28951 -0.37161,0.71147 -0.4327,0.7276 -2.7545,0.7276 -2.8018,0 -2.87512,-0.1153 -1.51455,-2.38212 1.80776,-3.0119 4.62563,-4.14649 9.70084,-3.90594 3.07525,0.14577 4.07914,0.48716 5.05383,1.71872 0.51745,0.65382 0.5664,0.96125 0.4535,2.84955 -0.0696,1.16417 -0.74665,4.97417 -1.50458,8.46667 -0.75795,3.4925 -1.45754,7.06437 -1.55464,7.9375 l -0.17656,1.5875 h -2.51354 -2.51354 l -0.0814,-1.12448 c -0.0995,-1.37526 -0.63672,-1.48681 -1.70571,-0.3542 -1.74215,1.84582 -5.38084,2.64779 -7.49933,1.65288 z m 7.57291,-3.91176 c 1.25468,-0.50202 1.90129,-1.56716 2.50446,-4.12547 0.5298,-2.24715 0.51295,-2.8526 -0.0794,-2.8526 -0.59705,0 -3.67649,1.19352 -4.19962,1.62768 -1.1756,0.97568 -1.83809,4.07739 -1.07606,5.03819 0.64463,0.8128 1.39425,0.8949 2.85057,0.3122 z m 30.77173,4.12269 c -3.92933,-0.77694 -4.97991,-3.41903 -3.89578,-9.79736 1.6655,-9.79893 5.33545,-13.54748 12.86102,-13.13647 2.02171,0.11041 2.80951,0.27281 3.69618,0.76193 2.20694,1.21742 2.87597,3.61448 2.21528,7.93701 -0.74528,4.87586 -2.09566,8.83552 -3.75526,11.01135 -2.0543,2.69335 -6.81874,4.07432 -11.12144,3.22354 z m 5.04372,-3.79543 c 1.15343,-0.48192 1.82981,-1.89745 2.82104,-5.90376 1.72784,-6.98337 1.56496,-9.60365 -0.59692,-9.60365 -1.41537,0 -2.31736,0.71161 -3.12553,2.46584 -0.78441,1.70268 -1.95545,6.54195 -2.26099,9.34345 -0.35597,3.26397 0.84375,4.66692 3.1624,3.69812 z m -54.92155,3.56304 c -1.80152,-0.25188 -2.33145,-0.84036 -2.33145,-2.58891 0,-0.78547 0.17484,-2.22553 0.38851,-3.20014 0.21368,-0.97461 0.87218,-4.07713 1.46333,-6.89448 1.1797,-5.62207 1.16306,-5.85775 -0.41341,-5.85775 -0.48291,0 -0.94445,-0.10748 -1.02565,-0.23885 -0.0812,-0.13137 0.01,-0.93504 0.20246,-1.78594 l 0.35007,-1.54709 1.21605,-0.0798 c 0.66884,-0.0439 1.35641,-0.24888 1.52794,-0.45556 0.24651,-0.29703 1.53204,-5.42803 1.57284,-6.27768 0.005,-0.10914 1.25968,-0.19844 2.78765,-0.19844 3.18548,0 3.08245,-0.11158 2.40737,2.60765 -0.91589,3.68921 -0.75457,4.27152 1.1834,4.27152 1.17226,0 1.18964,0.0572 0.6826,2.24896 l -0.30605,1.32292 -1.39139,0.0801 c -1.0922,0.0628 -1.47087,0.20507 -1.76114,0.66145 -0.3591,0.56455 -2.79916,11.58835 -2.79916,12.64608 0,0.7526 1.17308,1.82593 1.99559,1.82593 0.67291,0 0.6903,0.0385 0.50808,1.12448 -0.3475,2.07085 -0.47265,2.21998 -2.01912,2.40569 -1.59983,0.19212 -2.4652,0.1778 -4.23852,-0.0701 z m 34.85576,-0.0539 c -1.78731,-0.41877 -2.07661,-0.86967 -1.93071,-3.00928 0.0694,-1.01864 0.74721,-4.74538 1.50616,-8.28164 1.5171,-7.06894 1.51609,-7.10466 -0.20415,-7.24786 -0.90681,-0.0755 -0.96665,-0.13419 -0.89175,-0.87466 0.0442,-0.43657 0.19756,-1.24024 0.34091,-1.78594 0.25062,-0.95404 0.30478,-0.99219 1.40867,-0.99219 0.67771,0 1.27789,-0.15646 1.46497,-0.3819 0.3051,-0.36761 0.67186,-1.74121 1.32858,-4.97591 l 0.30888,-1.52136 h 2.75936 c 3.22623,0 3.07293,-0.23641 2.2302,3.43959 -0.28358,1.23693 -0.51863,2.32975 -0.52236,2.42849 -0.0188,0.49616 0.93062,1.01109 1.86417,1.01109 1.17226,0 1.18965,0.0572 0.6826,2.24896 l -0.30604,1.32292 -1.39139,0.0801 c -1.69837,0.0977 -1.96192,0.4324 -2.54143,3.22721 -0.2263,1.0914 -0.77314,3.69035 -1.21518,5.77543 -0.44204,2.08508 -0.8037,4.02526 -0.8037,4.3115 0,0.73679 1.17359,1.81932 1.97234,1.81932 0.77459,0 0.76835,-0.0314 0.37951,1.90473 l -0.29397,1.46382 -1.75655,0.16593 c -2.19329,0.20718 -3.06607,0.18166 -4.38912,-0.12833 z M 16.381149,140.96481 c -0.09219,-0.14915 0.01431,-1.07189 0.236648,-2.05052 0.222343,-0.97862 1.358779,-6.30369 2.525416,-11.83349 1.166636,-5.52979 2.362806,-11.17686 2.658153,-12.54904 0.295346,-1.37218 0.536996,-2.59647 0.536996,-2.72064 0,-0.12418 1.339453,-0.19211 2.976562,-0.15096 2.468274,0.062 2.966408,0.14258 2.9171,0.47169 -0.0327,0.21828 -0.478761,2.42093 -0.991238,4.89479 -1.029488,4.96961 -1.10954,5.82902 -0.562517,6.03893 0.556575,0.21358 0.937413,-0.18267 3.687474,-3.83673 1.388348,-1.84473 3.275338,-4.31528 4.193313,-5.49011 l 1.669042,-2.13605 h 2.977007 c 1.637352,0 2.977007,0.10688 2.977007,0.23751 0,0.13064 -1.966151,2.63796 -4.369221,5.57183 -2.40307,2.93387 -4.620033,5.67355 -4.926581,6.08818 l -0.557361,0.75387 0.853334,2.86858 c 0.469331,1.57771 1.190469,3.94013 1.602528,5.24982 1.945987,6.18514 2.593631,8.45152 2.471566,8.64903 -0.07292,0.11798 -1.556853,0.21451 -3.297637,0.21451 -3.717348,0 -3.205186,0.52805 -4.619189,-4.7625 -1.624483,-6.07808 -1.720201,-6.3707 -2.1361,-6.5303 -0.452469,-0.17363 -2.213721,1.40563 -3.004275,2.69384 -0.267909,0.43657 -0.745196,2.10344 -1.060635,3.70417 -0.315439,1.60073 -0.688644,3.3569 -0.829342,3.9026 l -0.255818,0.99219 h -2.752312 c -1.594223,0 -2.822837,-0.11411 -2.91992,-0.2712 z m 45.380129,-0.22551 c 0,-0.27319 0.190924,-1.34214 0.424273,-2.37545 0.367607,-1.62781 0.610695,-2.08272 1.820005,-3.4059 8.430178,-9.22395 9.694887,-10.68605 9.612866,-11.11339 -0.08006,-0.41718 -0.49829,-0.47588 -3.856805,-0.54133 -4.306017,-0.0839 -4.061717,0.11013 -3.405161,-2.70472 l 0.339423,-1.45521 7.725209,-0.0701 7.725199,-0.0701 -0.138139,0.59932 c -0.07599,0.32962 -0.305462,1.33999 -0.509958,2.24526 -0.204497,0.90527 -0.591529,1.92473 -0.860081,2.26547 -0.268552,0.34074 -2.750476,3.0311 -5.515372,5.97859 -2.764896,2.94748 -5.067274,5.60549 -5.11638,5.90669 -0.04911,0.30119 0.06996,0.64857 0.264583,0.77194 0.194627,0.12337 2.122964,0.22613 4.285165,0.22836 l 3.931285,0.004 -0.142901,0.59531 c -0.07861,0.32742 -0.226245,1.07156 -0.32811,1.65364 -0.373327,2.13367 0.263075,1.98438 -8.459206,1.98438 -7.449711,0 -7.795895,-0.0221 -7.795895,-0.49671 z m 39.952082,0.17203 c 0,-0.17858 0.19855,-1.24867 0.44122,-2.37797 0.35004,-1.62886 0.63029,-2.25906 1.35581,-3.04875 7.13724,-7.76868 10.13677,-11.24054 10.05945,-11.6435 -0.0793,-0.41302 -0.51001,-0.47263 -3.88876,-0.53808 l -3.79963,-0.0736 0.17563,-1.11702 c 0.0966,-0.61435 0.29448,-1.5635 0.43971,-2.1092 l 0.26405,-0.99219 h 7.69359 7.69358 l -0.15934,0.59531 c -0.0876,0.32743 -0.29755,1.30969 -0.46651,2.18282 -0.3561,1.84016 -0.72178,2.32054 -5.9726,7.84592 -1.8882,1.98692 -4.00238,4.27895 -4.69815,5.09338 -1.83981,2.15351 -1.65603,2.27424 3.46205,2.27424 3.08199,0 4.06709,0.0802 4.0622,0.33073 -0.006,0.29122 -0.21768,1.34993 -0.66218,3.30729 l -0.1352,0.59531 h -7.93247 c -6.09079,0 -7.93245,-0.0754 -7.93245,-0.32468 z m 42.24343,0.12868 c -0.12838,-0.2077 0.54449,-3.51519 4.26609,-20.97066 l 1.77694,-8.33438 2.84427,-0.0751 c 1.56435,-0.0413 2.84427,-0.0381 2.84427,0.007 0,0.0666 -3.8958,18.51731 -5.76855,27.32004 l -0.45029,2.11666 -2.69023,0.0752 c -1.47961,0.0413 -2.74974,-0.0211 -2.8225,-0.13888 z m 55.2713,-0.0431 c -0.0813,-0.13149 1.2214,-6.69687 2.89481,-14.58973 1.67338,-7.89286 3.04255,-14.45277 3.04255,-14.57759 0,-0.12481 1.3177,-0.22693 2.92825,-0.22693 2.66562,0 2.9157,0.0415 2.78855,0.46302 -0.0768,0.25466 -0.3265,1.35599 -0.55481,2.4474 -0.44241,2.11469 -1.91479,9.1009 -4.09853,19.44687 -0.73715,3.4925 -1.40509,6.55836 -1.48428,6.81302 -0.12441,0.39999 -0.49964,0.46302 -2.75641,0.46302 -1.43679,0 -2.67888,-0.10759 -2.76013,-0.23908 z m -9.93764,-25.82697 c 0,-0.0753 0.6029,-1.20638 1.33977,-2.51354 l 1.33977,-2.37666 h 2.36439 c 1.30043,0 2.3644,0.1066 2.3644,0.23689 0,0.13029 -0.96798,1.26139 -2.15104,2.51354 l -2.15103,2.27666 h -1.55313 c -0.85424,0 -1.55313,-0.0616 -1.55313,-0.13689 z m 81.75625,-0.13171 c 0,-0.30147 1.41472,-2.91539 2.18164,-4.03088 0.4776,-0.69472 0.59907,-0.72761 2.68706,-0.72761 1.20277,0 2.26208,0.0752 2.354,0.16715 0.0919,0.0919 -0.79788,1.22303 -1.97737,2.51354 l -2.1445,2.3464 h -1.55043 c -0.87265,0 -1.5504,-0.11742 -1.5504,-0.2686 z m -222.296344,-0.1305 c -0.144137,-0.14414 -0.02519,-0.79717 0.614074,-3.3712 l 0.246412,-0.99218 h 1.82627 c 1.004449,0 1.88245,0.0909 1.951117,0.202 0.06866,0.1111 -0.07714,1.09337 -0.324006,2.18281 l -0.44885,1.98081 -1.854753,0.0766 c -1.020114,0.0422 -1.924732,0.007 -2.010264,-0.0789 z m 7.614319,-0.85766 c 0.100992,-0.5457 0.314746,-1.52796 0.475009,-2.18281 l 0.291386,-1.19062 1.691923,-0.0798 c 0.930558,-0.0439 1.842416,-0.022 2.026346,0.0486 0.338995,0.13008 0.250926,0.82237 -0.433123,3.40463 l -0.262834,0.99219 h -1.986167 -1.986166 z m -7.303397,-13.8447 c -1.956816,-0.567218 -2.69323,-2.483863 -2.15038,-5.596739 0.396285,-2.272437 1.509959,-4.356814 2.890378,-5.409694 1.125476,-0.858428 3.252224,-1.609863 6.260375,-2.211949 2.456262,-0.491622 3.765706,-1.241933 4.379222,-2.509287 0.631753,-1.305031 0.652547,-1.762022 0.126452,-2.779376 -1.014465,-1.961761 -4.453072,-1.27112 -5.431454,1.090906 -0.316471,0.764027 -0.328732,0.767614 -2.62301,0.767614 -1.267781,0 -2.376718,-0.07166 -2.464306,-0.159252 -0.212637,-0.212635 0.537141,-1.830192 1.476436,-3.185229 1.499613,-2.163363 4.621789,-3.172458 9.11569,-2.946215 5.385162,0.271111 6.33671,1.699122 5.073298,7.613613 -0.29531,1.382448 -0.956993,4.478073 -1.470409,6.879167 -0.513413,2.401093 -1.014074,5.199062 -1.112575,6.217708 L 62.951903,99.82872 H 60.438362 57.92482 l -0.08956,-0.79375 c -0.08878,-0.786839 -0.465963,-1.455208 -0.821227,-1.455208 -0.101491,0 -0.592928,0.367752 -1.092081,0.817229 -0.499152,0.449477 -1.352568,1.046462 -1.89648,1.326634 -1.185828,0.610825 -3.682897,0.853145 -4.964194,0.481745 z m 7.581242,-4.347683 c 0.355359,-0.232839 0.863639,-0.781053 1.129516,-1.218253 0.603065,-0.991658 1.475555,-5.235443 1.144442,-5.566555 -0.286594,-0.286594 -3.838413,1.103786 -4.614965,1.806554 -0.851424,0.770527 -1.32388,1.920779 -1.365269,3.323904 -0.03232,1.095664 0.06681,1.390825 0.616839,1.836651 0.745763,0.604483 2.001766,0.53037 3.089437,-0.182301 z m 25.28239,4.387543 c -1.861079,-0.474107 -2.617311,-2.084903 -2.292509,-4.883243 0.237702,-2.048195 0.686779,-3.309315 1.705769,-4.790384 1.140698,-1.657956 2.556034,-2.38198 6.497743,-3.323982 3.995791,-0.954931 4.932707,-1.448749 5.516378,-2.907461 0.735753,-1.838806 0.469661,-2.853497 -0.939324,-3.582117 -1.528869,-0.790601 -3.436356,0.03611 -4.304507,1.865564 l -0.442833,0.933238 h -2.368841 c -2.660279,0 -2.734865,-0.07098 -1.889813,-1.798719 0.850133,-1.738112 1.217851,-2.178836 2.515024,-3.014361 1.607238,-1.035248 3.679243,-1.527506 6.451785,-1.532787 4.506013,-0.0086 6.395905,0.938826 6.62051,3.318873 0.134329,1.423543 -0.124063,2.955094 -1.782948,10.567619 -0.602482,2.764896 -1.175464,5.860521 -1.273281,6.879167 l -0.177826,1.852083 h -2.513542 -2.513541 l -0.083,-1.006959 c -0.110146,-1.336479 -0.636535,-1.478142 -1.775725,-0.477909 -1.97866,1.737288 -4.685956,2.477998 -6.949519,1.901378 z m 7.509616,-4.376851 c 0.972423,-0.637149 1.467511,-1.577102 1.997816,-3.793006 0.70059,-2.927461 0.681328,-3.06233 -0.412327,-2.884855 -1.565222,0.254002 -3.944832,1.572585 -4.586341,2.541391 -0.816874,1.233612 -0.836004,3.490503 -0.03635,4.290137 0.635423,0.635421 1.933125,0.569764 3.037205,-0.153667 z M 24.99349,99.369314 c 0.0051,-0.329409 0.171169,-1.353714 0.369014,-2.276235 0.411721,-1.919763 -0.06347,-1.207375 8.301273,-12.445015 3.39857,-4.56582 6.24259,-8.466633 6.320044,-8.668473 0.07745,-0.201842 -0.0061,-0.544062 -0.185756,-0.760489 -0.263959,-0.31805 -1.132118,-0.393507 -4.527516,-0.393507 -4.791202,0 -4.44342,0.244528 -3.782856,-2.659749 l 0.418084,-1.838167 h 8.313166 c 4.572243,0 8.31224,0.0893 8.311105,0.198437 -0.0011,0.109141 -0.215845,1.091406 -0.477131,2.182813 -0.518742,2.166829 0.347239,0.896842 -11.250573,16.49925 -2.997115,4.031985 -3.65664,5.073203 -3.435623,5.423958 0.234265,0.371777 0.962504,0.444434 5.073624,0.506198 2.640055,0.03966 4.796385,0.158726 4.791842,0.264583 -0.0046,0.105858 -0.220509,1.144969 -0.47993,2.309136 l -0.471675,2.116666 -8.648192,0.06976 -8.648195,0.06976 0.0093,-0.598929 z m 43.544442,0.375295 c -0.123859,-0.200406 1.441305,-7.810172 5.206961,-25.315889 l 0.853731,-3.96875 2.87274,-0.07541 2.872766,-0.07541 -0.150442,0.604578 c -0.181239,0.728388 -2.714784,12.667084 -5.434251,25.607704 l -0.695033,3.307291 -2.690787,0.07517 c -1.479946,0.04134 -2.755992,-0.03033 -2.835685,-0.159279 z m 32.823768,0.025 c -0.0712,-0.115194 0.51623,-3.244643 1.30538,-6.954332 0.78917,-3.709691 1.73217,-8.165901 2.09563,-9.90269 0.36343,-1.736791 0.78309,-3.612025 0.93258,-4.167187 l 0.2718,-1.009388 h 2.77993 2.7799 l -0.16563,0.882938 c -0.0911,0.485616 -1.14046,5.456476 -2.33188,11.046354 l -2.16622,10.163416 -2.68603,0.07517 c -1.4773,0.04134 -2.74426,-0.01908 -2.81546,-0.134279 z m 5.37875,-25.958223 c 0,-0.654975 0.64502,-3.399005 0.86555,-3.682148 0.1754,-0.225227 1.09869,-0.330729 2.89425,-0.330729 h 2.63671 l -0.17685,1.124479 c -0.0973,0.618464 -0.29091,1.570964 -0.43034,2.116667 l -0.25347,0.992187 h -2.76792 c -1.52236,0 -2.76793,-0.0992 -2.76793,-0.220456 z"
           id="path165" />
      </g>
    </g>
  </g>
</svg>
